<svg width="41" height="42" viewBox="0 0 41 42" fill="none" xmlns="http://www.w3.org/2000/svg">
<path fill-rule="evenodd" clip-rule="evenodd" d="M34.2448 19.8001C34.2777 19.8331 34.3123 19.8615 34.3484 19.8844L19.9384 34.2924L7.20549 21.5595L21.614 7.15097L21.6006 7.12837C21.6279 7.17402 21.6607 7.21608 21.6983 7.25364L22.4826 8.03798C22.999 8.55438 23.8008 7.75263 23.2844 7.23623L22.5001 6.45189C22.4601 6.4119 22.418 6.37901 22.3748 6.35421L22.3969 6.36812L25.8895 2.87547C26.0556 2.71142 26.2738 2.62715 26.4896 2.62428C26.7055 2.62241 26.9219 2.70191 27.0829 2.86288L38.6355 14.4155C38.797 14.577 38.876 14.7929 38.8736 15.0083C38.8717 15.232 38.7818 15.4479 38.6234 15.6094L35.1308 19.102C35.1079 19.0659 35.0795 19.0313 35.0465 18.9983L34.2622 18.214C33.7458 17.6976 32.944 18.4994 33.4604 19.0157L34.2448 19.8001ZM31.8933 17.448C32.4097 17.9644 33.2115 17.1626 32.6951 16.6462L31.9107 15.8619C31.3943 15.3455 30.5926 16.1473 31.109 16.6637L31.8933 17.448ZM29.5402 15.0952C30.0566 15.6116 30.8583 14.8099 30.3419 14.2935L29.5581 13.5097C29.0417 12.9933 28.2399 13.795 28.7563 14.3114L29.5402 15.0952ZM27.1876 12.7427C27.704 13.2591 28.5058 12.4574 27.9894 11.941L27.2055 11.1571C26.6892 10.6407 25.8874 11.4425 26.4038 11.9589L27.1876 12.7427ZM24.8356 10.3907C25.352 10.9071 26.1538 10.1053 25.6374 9.58895L24.853 8.80461C24.3366 8.28821 23.5349 9.08997 24.0513 9.60636L24.8356 10.3907ZM1.67216 25.6858L25.1866 2.17231C25.5489 1.80698 26.0265 1.62132 26.5012 1.6156C26.9753 1.6104 27.4489 1.78562 27.8048 2.14154L39.3575 13.6942C39.7139 14.0506 39.8881 14.5243 39.8829 14.9974C39.8777 15.4725 39.6921 15.9501 39.3282 16.3139L15.8133 39.8269C15.453 40.1902 14.9754 40.3758 14.5003 40.381L14.4952 40.3811C14.0221 40.3853 13.549 40.2116 13.1945 39.8571L10.5776 37.2402C10.3971 37.0597 10.3871 36.7718 10.545 36.5719C11.038 35.815 11.2468 34.9283 11.1693 34.071C11.0913 33.2162 10.7279 32.3868 10.0775 31.7365C9.42715 31.0861 8.59726 30.7222 7.743 30.6447C6.87208 30.5658 5.97113 30.7819 5.20694 31.2921C5.00625 31.4259 4.74222 31.4019 4.57533 31.2349L1.6429 28.3055C1.28647 27.9491 1.11125 27.4754 1.11645 27.0013C1.12167 26.5262 1.30733 26.0486 1.67216 25.6858Z" fill="#666666"/>
<path fill-rule="evenodd" clip-rule="evenodd" d="M1.95297 26.8888C1.96134 25.9048 6.54613 21.9437 6.54613 21.9437L19.5569 34.9545C19.5569 34.9545 15.5392 39.5303 14.7878 39.7236C14.0364 39.9168 11.5111 37.0237 11.5111 37.0237C11.5111 37.0237 12.2725 34.9664 12.1886 34.1504C12.0092 32.406 11.1161 31.082 10.7673 30.7333C10.3691 30.335 9.07223 29.4953 7.49417 29.456C6.73627 29.4371 4.87639 30.389 4.87639 30.389C4.87639 30.389 1.9446 27.8728 1.95297 26.8888Z" fill="#F34F4F"/>
</svg>
