<svg width="39" height="28" viewBox="0 0 39 28" fill="none" xmlns="http://www.w3.org/2000/svg">
<path fill-rule="evenodd" clip-rule="evenodd" d="M18.7256 0H6.20229H6.20198V0.00421241C4.49224 0.00453645 2.9415 0.715138 1.82083 1.85929C1.79893 1.88165 1.7783 1.90498 1.75862 1.92864C0.674756 3.06729 0.00476074 4.62167 0.00444336 6.33061H0V6.33223H0.00444336V15.4647H0V15.4654H0.00412598C0.00444336 17.211 0.700464 18.7942 1.82114 19.9383C2.9415 21.0822 4.49192 21.7924 6.20071 21.7928V21.7976H6.20229H8.64678C8.47507 22.3452 8.27703 22.8731 8.03137 23.3783C7.58989 24.2862 6.98052 25.152 6.06138 25.9838C5.59419 26.4057 5.55071 27.1344 5.96394 27.6114C6.25371 27.9455 6.69106 28.067 7.08779 27.9649L7.08875 27.9688C9.1968 27.4183 11.0763 26.579 12.7378 25.465C14.2403 24.4579 15.5524 23.2302 16.6829 21.7928H16.8111V21.7976H16.8118V21.7928C18.412 21.7928 20.3966 21.1379 21.9683 20.0828C23.6561 18.95 24.9231 17.3279 24.9238 15.466H24.9282V15.4651H24.9238V6.33255H24.9282V6.33191H24.9238C24.9234 4.59056 24.2268 3.00831 23.1045 1.86156L23.1071 1.85929C21.9867 0.715138 20.4366 0.00518451 18.7272 0.00453645V0H18.7256ZM18.726 1.15723H6.20271C3.4145 1.15723 1.13379 3.48604 1.13379 6.33234V15.4649C1.13379 18.3108 3.41514 20.64 6.20271 20.64H10.1405C9.57712 22.9153 8.89507 24.96 6.81018 26.8471C10.7959 25.8067 13.8726 23.7027 16.1308 20.64H16.8115C19.5991 20.64 23.7946 18.3111 23.7946 15.4649V6.33202C23.7949 3.48604 21.5139 1.15723 18.726 1.15723ZM6.81992 9.35836C5.80398 9.35836 4.98037 10.1995 4.98037 11.2365C4.98037 12.2734 5.8043 13.1145 6.81992 13.1145C7.83555 13.1145 8.65947 12.2734 8.65947 11.2365C8.65947 10.1995 7.83586 9.35836 6.81992 9.35836ZM18.1083 9.35836C17.0923 9.35836 16.2687 10.1995 16.2687 11.2365C16.2687 12.2734 17.0927 13.1145 18.1083 13.1145C19.1239 13.1145 19.9478 12.2734 19.9478 11.2365C19.9478 10.1995 19.1239 9.35836 18.1083 9.35836ZM10.624 11.2365C10.624 10.1996 11.4476 9.3584 12.4636 9.3584C13.4795 9.3584 14.3031 10.1996 14.3031 11.2365C14.3031 12.2734 13.4795 13.1146 12.4636 13.1146C11.4476 13.1146 10.624 12.2734 10.624 11.2365Z" fill="#666666"/>
<path fill-rule="evenodd" clip-rule="evenodd" d="M34.5205 2.65137H26.4371C26.5881 3.20417 26.6697 3.7858 26.6694 4.38591V9.42169C26.9633 9.21334 27.3203 9.09118 27.7053 9.09118C28.7095 9.09118 29.5239 9.92264 29.5239 10.9476C29.5239 11.9725 28.7095 12.8039 27.7053 12.8039C27.3203 12.8039 26.9633 12.6818 26.6694 12.4731V15.8362C26.6694 17.332 25.7448 18.7133 24.4141 19.8137C24.6661 19.8494 24.9111 19.8682 25.145 19.8682H25.7464C27.7421 22.5748 30.4608 24.4341 33.9832 25.3537C32.1414 23.6856 31.5384 21.8791 31.0404 19.8682H34.5205C36.9837 19.8682 38.9997 17.8099 38.9997 15.2951V7.22443C38.9997 4.70929 36.9843 2.65137 34.5205 2.65137ZM33.5058 12.8036C32.5019 12.8036 31.6875 11.9721 31.6875 10.9472C31.6875 9.92229 32.5019 9.09082 33.5058 9.09082C34.51 9.09082 35.3244 9.92229 35.3244 10.9472C35.3244 11.9721 34.51 12.8036 33.5058 12.8036Z" fill="#F34F4F"/>
</svg>
