<svg width="27" height="32" viewBox="0 0 27 32" fill="none" xmlns="http://www.w3.org/2000/svg">
<path fill-rule="evenodd" clip-rule="evenodd" d="M5.27601 6.297L1.9977 9.75105C1.68702 10.0783 1.53311 10.5236 1.5754 10.9725L3.35781 29.88C3.43895 30.7395 4.20308 31.371 5.0647 31.29L9.84763 30.8412L5.27601 6.297Z" fill="#F34F4F"/>
<path fill-rule="evenodd" clip-rule="evenodd" d="M7.14171 3.32333L2.976 11.7115C2.78066 12.1049 2.76503 12.5632 2.93307 12.9689L10.0123 30.0589C10.3341 30.8359 11.2264 31.2055 12.0052 30.8843L25.0566 25.5021C25.8354 25.181 26.2058 24.2908 25.8839 23.5137L18.8048 6.4238C18.6367 6.01811 18.3012 5.70449 17.8846 5.56357L8.99886 2.55745C8.27497 2.31251 7.48115 2.63985 7.14171 3.32333ZM11.7786 7.22179C11.4012 6.31074 10.3551 5.87741 9.44209 6.25399C8.5289 6.63047 8.0947 7.67426 8.47203 8.58531C8.84955 9.49636 9.89568 9.92968 10.8087 9.55311C11.7218 9.17663 12.1561 8.13284 11.7786 7.22179ZM12.4297 23.8896L16.7577 13.4873L12.4297 23.8896ZM12.1899 16.4992C12.52 17.2958 12.1402 18.2085 11.3418 18.5378C10.5435 18.8671 9.62868 18.4881 9.29873 17.6915C8.96868 16.8949 9.34848 15.9822 10.1468 15.6529C10.9452 15.3237 11.86 15.7026 12.1899 16.4992ZM19.8882 19.6847C20.2183 20.4814 19.8385 21.394 19.0401 21.7233C18.2418 22.0526 17.327 21.6737 16.9969 20.8771C16.667 20.0804 17.0467 19.1678 17.8451 18.8385C18.6435 18.5092 19.5583 18.8881 19.8882 19.6847ZM9.85295 7.04122C7.96949 3.93297 3.12696 -0.434899 1.70203 1.46073C0.660849 2.84576 3.19204 4.91418 5.71137 6.20458L9.85295 7.04122Z" fill="white"/>
<path d="M7.14171 3.32333L6.60433 3.05645L6.60433 3.05646L7.14171 3.32333ZM2.976 11.7115L2.43862 11.4446L2.43861 11.4446L2.976 11.7115ZM2.93307 12.9689L2.37874 13.1985L2.37875 13.1986L2.93307 12.9689ZM10.0123 30.0589L10.5666 29.8293L10.5666 29.8293L10.0123 30.0589ZM12.0052 30.8843L11.7765 30.3296L11.7764 30.3296L12.0052 30.8843ZM25.0566 25.5021L24.8279 24.9474L24.8279 24.9474L25.0566 25.5021ZM25.8839 23.5137L25.3295 23.7434L25.3295 23.7434L25.8839 23.5137ZM18.8048 6.4238L18.2504 6.6534L18.2505 6.65341L18.8048 6.4238ZM17.8846 5.56357L17.6923 6.13192L17.6923 6.13194L17.8846 5.56357ZM8.99886 2.55745L8.80656 3.12579L8.80658 3.1258L8.99886 2.55745ZM9.44209 6.25399L9.67078 6.8087L9.67088 6.80866L9.44209 6.25399ZM8.47203 8.58531L7.91769 8.8149L7.91773 8.815L8.47203 8.58531ZM10.8087 9.55311L10.58 8.99841L10.5799 8.99844L10.8087 9.55311ZM11.8757 23.6591C11.7484 23.9651 11.8933 24.3163 12.1992 24.4436C12.5051 24.5709 12.8564 24.426 12.9837 24.1201L11.8757 23.6591ZM17.3117 13.7178C17.439 13.4118 17.2941 13.0606 16.9882 12.9333C16.6822 12.806 16.331 12.9509 16.2037 13.2568L17.3117 13.7178ZM12.1899 16.4992L11.6356 16.7288L11.6356 16.7289L12.1899 16.4992ZM11.3418 18.5378L11.1131 17.9831L11.113 17.9831L11.3418 18.5378ZM9.29873 17.6915L9.85306 17.4619L9.85305 17.4619L9.29873 17.6915ZM10.1468 15.6529L9.91812 15.0982L9.91806 15.0982L10.1468 15.6529ZM19.8882 19.6847L19.3339 19.9143L19.3339 19.9144L19.8882 19.6847ZM19.0401 21.7233L19.2689 22.278L19.2689 22.278L19.0401 21.7233ZM16.9969 20.8771L16.4426 21.1067L16.4426 21.1068L16.9969 20.8771ZM17.8451 18.8385L18.0739 19.3932L18.0739 19.3932L17.8451 18.8385ZM9.85295 7.04122L9.73415 7.62934C9.96761 7.67651 10.2069 7.58111 10.3438 7.38626C10.4808 7.1914 10.4895 6.93398 10.3661 6.73028L9.85295 7.04122ZM1.70203 1.46073L2.18163 1.82126L2.18164 1.82125L1.70203 1.46073ZM5.71137 6.20458L5.43785 6.7386C5.4867 6.76363 5.53876 6.78183 5.59257 6.7927L5.71137 6.20458ZM6.60433 3.05646L2.43862 11.4446L3.51338 11.9784L7.67909 3.59021L6.60433 3.05646ZM2.43861 11.4446C2.16616 11.9933 2.14436 12.6327 2.37874 13.1985L3.4874 12.7393C3.3857 12.4938 3.39515 12.2164 3.51338 11.9784L2.43861 11.4446ZM2.37875 13.1986L9.45793 30.2885L10.5666 29.8293L3.4874 12.7393L2.37875 13.1986ZM9.45792 30.2885C9.90678 31.3722 11.15 31.886 12.234 31.4389L11.7764 30.3296C11.3028 30.5249 10.7614 30.2996 10.5666 29.8293L9.45792 30.2885ZM12.2339 31.439L25.2854 26.0568L24.8279 24.9474L11.7765 30.3296L12.2339 31.439ZM25.2853 26.0568C26.37 25.6096 26.8874 24.3685 26.4382 23.2841L25.3295 23.7434C25.5242 24.2131 25.3008 24.7524 24.8279 24.9474L25.2853 26.0568ZM26.4382 23.2841L19.3591 6.19418L18.2505 6.65341L25.3295 23.7434L26.4382 23.2841ZM19.3591 6.19419C19.1247 5.62833 18.657 5.19143 18.0768 4.99519L17.6923 6.13194C17.9454 6.21754 18.1488 6.40788 18.2504 6.6534L19.3591 6.19419ZM18.0768 4.99521L9.19114 1.98909L8.80658 3.1258L17.6923 6.13192L18.0768 4.99521ZM9.19117 1.9891C8.18354 1.64816 7.07763 2.10345 6.60433 3.05645L7.67909 3.59021C7.88468 3.17624 8.36641 2.97686 8.80656 3.12579L9.19117 1.9891ZM12.333 6.99215C11.8285 5.77453 10.4316 5.19684 9.21331 5.69932L9.67088 6.80866C10.2786 6.55798 10.9739 6.84694 11.2243 7.45143L12.333 6.99215ZM9.21341 5.69928C7.99426 6.2019 7.41311 7.59658 7.91769 8.8149L9.02636 8.35572C8.7763 7.75193 9.06353 7.05905 9.67078 6.8087L9.21341 5.69928ZM7.91773 8.815C8.42226 10.0325 9.8192 10.6103 11.0375 10.1078L10.5799 8.99844C9.97215 9.24911 9.27684 8.96017 9.02632 8.35562L7.91773 8.815ZM11.0374 10.1078C12.2564 9.60521 12.8377 8.21054 12.333 6.99215L11.2243 7.45143C11.4744 8.05515 11.1872 8.74804 10.58 8.99841L11.0374 10.1078ZM12.9837 24.1201L17.3117 13.7178L16.2037 13.2568L11.8757 23.6591L12.9837 24.1201ZM16.2037 13.2568L11.8757 23.6591L12.9837 24.1201L17.3117 13.7178L16.2037 13.2568ZM11.6356 16.7289C11.8383 17.2181 11.6056 17.78 11.1131 17.9831L11.5706 19.0924C12.6748 18.6371 13.2017 17.3735 12.7442 16.2696L11.6356 16.7289ZM11.113 17.9831C10.6199 18.1865 10.056 17.9519 9.85306 17.4619L8.7444 17.9211C9.20135 19.0243 10.467 19.5476 11.5706 19.0924L11.113 17.9831ZM9.85305 17.4619C9.65034 16.9726 9.88303 16.4108 10.3756 16.2076L9.91806 15.0982C8.81393 15.5537 8.28703 16.8171 8.74442 17.9212L9.85305 17.4619ZM10.3756 16.2076C10.8688 16.0042 11.4327 16.2388 11.6356 16.7288L12.7443 16.2696C12.2873 15.1663 11.0216 14.6432 9.91812 15.0982L10.3756 16.2076ZM19.3339 19.9144C19.5366 20.4037 19.3039 20.9655 18.8113 21.1687L19.2689 22.278C20.373 21.8226 20.8999 20.5591 20.4426 19.4551L19.3339 19.9144ZM18.8114 21.1686C18.3182 21.372 17.7543 21.1374 17.5512 20.6475L16.4426 21.1068C16.8997 22.21 18.1653 22.7331 19.2689 22.278L18.8114 21.1686ZM17.5513 20.6475C17.3486 20.1582 17.5813 19.5964 18.0739 19.3932L17.6164 18.2838C16.5121 18.7393 15.9854 20.0027 16.4426 21.1067L17.5513 20.6475ZM18.0739 19.3932C18.5671 19.1898 19.131 19.4244 19.3339 19.9143L20.4426 19.4551C19.9856 18.3519 18.72 17.8286 17.6164 18.2838L18.0739 19.3932ZM10.3661 6.73028C9.38328 5.10835 7.65009 3.18424 5.9703 1.89812C5.13448 1.25818 4.26533 0.739769 3.47369 0.518089C2.67785 0.295233 1.79282 0.341396 1.22242 1.10021L2.18164 1.82125C2.32371 1.63224 2.57835 1.51353 3.1501 1.67364C3.72606 1.83492 4.45243 2.24731 5.24079 2.85092C6.80936 4.05189 8.43917 5.86584 9.33981 7.35216L10.3661 6.73028ZM1.22243 1.10019C0.826718 1.62659 0.784152 2.22468 0.96327 2.78693C1.1332 3.32034 1.50047 3.82725 1.9387 4.28369C2.82025 5.20186 4.14722 6.07755 5.43785 6.7386L5.9849 5.67055C4.7562 5.04121 3.55791 4.23749 2.80432 3.4526C2.42498 3.0575 2.19722 2.70696 2.10665 2.42268C2.02527 2.16723 2.05675 1.98738 2.18163 1.82126L1.22243 1.10019ZM5.59257 6.7927L9.73415 7.62934L9.97176 6.4531L5.83018 5.61646L5.59257 6.7927Z" fill="#494946"/>
</svg>
