<svg xmlns="http://www.w3.org/2000/svg" width="57.527" height="57.457" viewBox="0 0 57.527 57.457">
  <path id="safari" d="M60.763,59.924H32.3a3.691,3.691,0,0,0,.594-1.679h2.285a.839.839,0,0,0,.84-.84V51.552a3.242,3.242,0,0,0-3.239-3.239H29.333L27.7,42.94l-.07-.23a.84.84,0,0,0-.8-.6H13.278a.839.839,0,0,0-.84.84v5.36H11.244a.839.839,0,0,0-.84.84v.657H10a2.282,2.282,0,0,0-2.279,2.279V54.3A2.282,2.282,0,0,0,10,56.582h.4v.823a.839.839,0,0,0,.84.84h2.528a3.685,3.685,0,0,0,.594,1.679H5.587a.84.84,0,0,0,0,1.679H60.763a.84.84,0,1,0,0-1.679ZM10.4,54.9H10a.6.6,0,0,1-.6-.6V52.089a.6.6,0,0,1,.6-.6h.4Zm16.748,2.982a2.039,2.039,0,1,1,2.039,2.039,2.039,2.039,0,0,1-2.039-2.039Zm-6.057-9.572h-3.81V43.794h3.81Zm1.679-4.519H26.2l1.371,4.519h-4.8Zm-10.69,6.2h1.195a.839.839,0,0,0,.84-.84V43.794h1.487v5.359a.839.839,0,0,0,.84.84H32.777a1.561,1.561,0,0,1,1.559,1.559v5.014H32.663a3.715,3.715,0,1,0-6.578,3.359H20.578a3.685,3.685,0,0,0,.594-1.679h1.722a.84.84,0,1,0,0-1.679h-1.95a3.712,3.712,0,0,0-6.944,0H12.084Zm3.349,7.893a2.039,2.039,0,1,1,2.039,2.039,2.039,2.039,0,0,1-2.039-2.039Zm46.068-8.8a.838.838,0,0,1-.739.439.829.829,0,0,1-.4-.1q-3.64-1.972-6.892-3.721a.84.84,0,0,1,.795-1.48q3.26,1.751,6.9,3.725a.839.839,0,0,1,.338,1.138Zm-9.854-6.264a.84.84,0,0,1-.4,1.58.83.83,0,0,1-.395-.1l-1.583-.844a.84.84,0,0,1,.792-1.482ZM4.964,35.18a.841.841,0,0,1,.059-1.188c.175-.159.368-.341.579-.541C7.55,31.609,11.153,28.2,16.652,28.2h.225c3.421.058,7.7,1.3,14.659,4.448,3.866-2.621,9.356-5.659,14.316-5.884,5.427-.24,9.326,2.766,15.516,9.19a.84.84,0,1,1-1.21,1.165c-5.833-6.05-9.455-8.9-14.23-8.676-4.371.2-9.391,2.949-12.6,5.032,3.713,1.739,8.133,3.972,13.5,6.793a.84.84,0,0,1-.782,1.487c-6-3.161-10.8-5.57-14.722-7.366l-.02-.009c-6.975-3.194-11.174-4.444-14.45-4.5-4.928-.1-8.166,2.97-10.092,4.8-.22.209-.422.4-.6.565a.841.841,0,0,1-1.188-.057Zm8.047-2.557a.839.839,0,0,1-.361,1.131,14.788,14.788,0,0,0-3.115,2.261A.84.84,0,0,1,8.4,34.772a16.365,16.365,0,0,1,3.476-2.507.838.838,0,0,1,1.131.358ZM45.142,12.184a3.718,3.718,0,1,0-3.718-3.718,3.718,3.718,0,0,0,3.718,3.718Zm0-5.757a2.039,2.039,0,1,1-2.035,2.041,2.039,2.039,0,0,1,2.035-2.041ZM21.095,51.888a.839.839,0,0,1,.84-.84h1.919a.84.84,0,0,1,0,1.679H21.934a.839.839,0,0,1-.84-.84Zm-6.052-7.3" transform="translate(-4.445 -4.447)" fill="#2196f3" stroke="#f0f9ff" stroke-width="0.6"/>
</svg>
