<svg xmlns="http://www.w3.org/2000/svg" xmlns:xlink="http://www.w3.org/1999/xlink" width="52.559" height="52.559" viewBox="0 0 52.559 52.559">
  <defs>
    <clipPath id="clip-path">
      <path id="path5859" d="M0-682.665H52.559v52.559H0Z" transform="translate(0 682.665)"/>
    </clipPath>
  </defs>
  <g id="g5853" transform="translate(20.457 687.661)">
    <g id="g5855" transform="translate(-20.457 -687.661)">
      <g id="g5857" clip-path="url(#clip-path)">
        <g id="g5863" transform="translate(3.49 48.688)">
          <path id="path5865" d="M-41.843-.258V1.076a1.745,1.745,0,0,1-1.745,1.745,1.745,1.745,0,0,1-1.745-1.745V-.28" transform="translate(45.333 0.28)" fill="none" stroke="#2196f3" stroke-linecap="round" stroke-linejoin="round" stroke-miterlimit="10" stroke-width="1.2"/>
        </g>
        <g id="g5867" transform="translate(0.77 11.549)">
          <path id="path5869" d="M-228.906-445.5H-244.92a3.079,3.079,0,0,1-3.08-3.08v-31a3.079,3.079,0,0,1,3.08-3.08h19.709a3.079,3.079,0,0,1,3.08,3.08v11.6" transform="translate(247.999 482.665)" fill="none" stroke="#2196f3" stroke-linecap="round" stroke-linejoin="round" stroke-miterlimit="10" stroke-width="1.2"/>
        </g>
        <g id="g5871" transform="translate(8.284 7.399)">
          <path id="path5873" d="M0-49.744v-4.149" transform="translate(0 53.893)" fill="none" stroke="#2196f3" stroke-linecap="round" stroke-linejoin="round" stroke-miterlimit="10" stroke-width="1.2"/>
        </g>
        <g id="g5875" transform="translate(19.124 7.399)">
          <path id="path5877" d="M0-49.744v-4.149" transform="translate(0 53.893)" fill="none" stroke="#2196f3" stroke-linecap="round" stroke-linejoin="round" stroke-miterlimit="10" stroke-width="1.2"/>
        </g>
        <g id="g5879" transform="translate(6.744 0.77)">
          <path id="path5881" d="M-148.417-79.478a1.54,1.54,0,0,1-1.54-1.54v-1.5a.514.514,0,0,0-.513-.513H-157.2a.514.514,0,0,0-.513.513v1.5a1.54,1.54,0,0,1-1.54,1.54,1.54,1.54,0,0,1-1.54-1.54v-1.5a3.6,3.6,0,0,1,3.593-3.593h6.734a3.6,3.6,0,0,1,3.593,3.593v1.5A1.54,1.54,0,0,1-148.417-79.478Z" transform="translate(160.797 86.108)" fill="none" stroke="#2196f3" stroke-linecap="round" stroke-linejoin="round" stroke-miterlimit="10" stroke-width="1.2"/>
        </g>
        <g id="g5883" transform="translate(6.055 24.024)">
          <path id="path5885" d="M-179.593-34.376a4.628,4.628,0,0,0-1.053-1.6A4.187,4.187,0,0,0-186.4-36.2a.782.782,0,0,1-1.047,0,4.185,4.185,0,0,0-5.754.224,4.645,4.645,0,0,0-.477,6.038,16.754,16.754,0,0,0,6.482,4.862.782.782,0,0,0,.546,0,18.446,18.446,0,0,0,5.886-4.133" transform="translate(194.573 37.244)" fill="none" stroke="#2196f3" stroke-linecap="round" stroke-linejoin="round" stroke-miterlimit="10" stroke-width="1.2"/>
        </g>
        <g id="g5887" transform="translate(29.567 19.639)">
          <path id="path5889" d="M0-79v-3.51a3.079,3.079,0,0,1,3.08-3.08H9.438a3.079,3.079,0,0,1,3.08,3.08V-79M3.079-79v-3.2a.308.308,0,0,1,.308-.308H9.131a.308.308,0,0,1,.308.308V-79" transform="translate(0 85.586)" fill="none" stroke="#2196f3" stroke-linecap="round" stroke-linejoin="round" stroke-miterlimit="10" stroke-width="1.2"/>
        </g>
        <g id="g5891" transform="translate(19.863 26.228)">
          <path id="path5893" d="M-382.74-224.724v3.736a3.08,3.08,0,0,1-3.08,3.08h-25.766a3.08,3.08,0,0,1-3.08-3.08v-19.4a3.08,3.08,0,0,1,3.08-3.08h25.766a3.08,3.08,0,0,1,3.08,3.08v12.072" transform="translate(414.666 243.469)" fill="none" stroke="#2196f3" stroke-linecap="round" stroke-linejoin="round" stroke-miterlimit="10" stroke-width="1.2"/>
        </g>
        <g id="g5895" transform="translate(29.739 34.15)">
          <path id="path5897" d="M-70.369-116.029a.624.624,0,0,0,.435,0,14,14,0,0,0,5.157-3.866,3.7,3.7,0,0,0-.379-4.8,3.331,3.331,0,0,0-4.579-.178.623.623,0,0,1-.834,0,3.33,3.33,0,0,0-4.579.178,3.7,3.7,0,0,0-.379,4.8A13.333,13.333,0,0,0-70.369-116.029Z" transform="translate(76.239 125.707)" fill="none" stroke="#2196f3" stroke-linecap="round" stroke-linejoin="round" stroke-miterlimit="10" stroke-width="1.2"/>
        </g>
        <g id="g5899" transform="translate(10.143 19.248)">
          <path id="path5901" d="M0,0H16.5" fill="none" stroke="#2196f3" stroke-linecap="round" stroke-linejoin="round" stroke-miterlimit="10" stroke-width="1.2"/>
        </g>
        <g id="g5903" transform="translate(0.77 19.248)">
          <path id="path5905" d="M0,0H5.781" fill="none" stroke="#2196f3" stroke-linecap="round" stroke-linejoin="round" stroke-miterlimit="10" stroke-width="1.2"/>
        </g>
        <g id="g5907" transform="translate(0.77 41.01)">
          <path id="path5909" d="M0,0H19.094" transform="translate(0 0)" fill="none" stroke="#2196f3" stroke-linecap="round" stroke-linejoin="round" stroke-miterlimit="10" stroke-width="1.2"/>
        </g>
        <g id="g5911" transform="translate(19.863 47.169)">
          <path id="path5913" d="M0,0H31.925" fill="none" stroke="#2196f3" stroke-linecap="round" stroke-linejoin="round" stroke-miterlimit="10" stroke-width="1.2"/>
        </g>
        <g id="g5915" transform="translate(19.863 30.847)">
          <path id="path5917" d="M0,0H31.925" fill="none" stroke="#2196f3" stroke-linecap="round" stroke-linejoin="round" stroke-miterlimit="10" stroke-width="1.2"/>
        </g>
      </g>
    </g>
  </g>
</svg>
