<svg xmlns="http://www.w3.org/2000/svg" xmlns:xlink="http://www.w3.org/1999/xlink" width="52.559" height="52.559" viewBox="0 0 52.559 52.559">
  <defs>
    <clipPath id="clip-path">
      <path id="path3420" d="M0-682.665H52.559v52.559H0Z" transform="translate(0 682.665)"/>
    </clipPath>
  </defs>
  <g id="g3414" transform="translate(0 682.665)">
    <g id="g3416" transform="translate(0 -682.665)">
      <g id="g3418" clip-path="url(#clip-path)">
        <g id="g3424" transform="translate(0.77 25.045)">
          <path id="path3426" d="M0-305.823l10.669-6.9a17.28,17.28,0,0,1,7.244-2.639l14.81-1.851a2.469,2.469,0,0,0,1.642-.934l3.034-3.9a17.28,17.28,0,0,1,5.067-4.395l8.552-4.887" transform="translate(0 331.333)" fill="none" stroke="#2196f3" stroke-linecap="round" stroke-linejoin="round" stroke-miterlimit="10" stroke-width="1.2"/>
        </g>
        <g id="g3428" transform="translate(12.29 43.971)">
          <path id="path3430" d="M0-59.192l7.331-3.665a4.937,4.937,0,0,1,1.9-.512l12.164-.76" transform="translate(0 64.129)" fill="none" stroke="#2196f3" stroke-linecap="round" stroke-linejoin="round" stroke-miterlimit="10" stroke-width="1.2"/>
        </g>
        <g id="g3432" transform="translate(36.977 32.451)">
          <path id="path3434" d="M-177.576,0l-4.47.639a3.291,3.291,0,0,0-2.1,1.2L-189.56,8.6a.823.823,0,0,1-.9.267l-1.924-.641" transform="translate(192.388)" fill="none" stroke="#2196f3" stroke-linecap="round" stroke-linejoin="round" stroke-miterlimit="10" stroke-width="1.2"/>
        </g>
        <g id="g3436" transform="translate(14.076 10.13)">
          <path id="path3438" d="M-252.478-336.839l-3.1-1.662v-7.021a2.469,2.469,0,0,0-.953-1.949l-6.453-5.019,4.114-6.583,4.114.823h6.583a3.291,3.291,0,0,0,3.292-3.291h-9.052l-7.689-3.2a2.469,2.469,0,0,0-3.186,1.235l-4.219,9.04a5.761,5.761,0,0,0-.54,2.436v8.6l-3.871,6.967a.823.823,0,0,0,.035.856l1.368,2.051" transform="translate(273.538 364.936)" fill="none" stroke="#2196f3" stroke-linecap="round" stroke-linejoin="round" stroke-miterlimit="10" stroke-width="1.2"/>
        </g>
        <g id="g3440" transform="translate(14.888 7.234)">
          <path id="path3442" d="M-37.421-175.118l-.746-.348a4.114,4.114,0,0,1-1.989-5.468l3.437-7.365a2.469,2.469,0,0,1,3.281-1.193l2.237,1.044Z" transform="translate(40.543 189.725)" fill="none" stroke="#2196f3" stroke-linecap="round" stroke-linejoin="round" stroke-miterlimit="10" stroke-width="1.2"/>
        </g>
        <g id="g3444" transform="translate(18.4 22.576)">
          <path id="path3446" d="M-64.872,0-66.3,8.553a6.584,6.584,0,0,1-.94,2.452l-2.813,4.42a1.491,1.491,0,0,0,.227,1.878l.836.8" transform="translate(70.284)" fill="none" stroke="#2196f3" stroke-linecap="round" stroke-linejoin="round" stroke-miterlimit="10" stroke-width="1.2"/>
        </g>
        <g id="g3448" transform="translate(28.748 30.977)">
          <path id="path3450" d="M0,0V8.057" fill="none" stroke="#2196f3" stroke-linecap="round" stroke-linejoin="round" stroke-miterlimit="10" stroke-width="1.2"/>
        </g>
        <g id="g3452" transform="translate(22.988 27.514)">
          <path id="path3454" d="M0,0,2.88,1.646" fill="none" stroke="#2196f3" stroke-linecap="round" stroke-linejoin="round" stroke-miterlimit="10" stroke-width="1.2"/>
        </g>
        <g id="g3456" transform="translate(18.29 22.576)">
          <path id="path3458" d="M-76.045,0h-6.343" transform="translate(82.388)" fill="none" stroke="#2196f3" stroke-linecap="round" stroke-linejoin="round" stroke-miterlimit="10" stroke-width="1.2"/>
        </g>
        <g id="g3460" transform="translate(26.279 4.172)">
          <path id="path3462" d="M-55.954,0a2.458,2.458,0,0,1,.27,1.124,2.469,2.469,0,0,1-2.469,2.469,2.469,2.469,0,0,1-2.469-2.469" transform="translate(60.621)" fill="none" stroke="#2196f3" stroke-linecap="round" stroke-linejoin="round" stroke-miterlimit="10" stroke-width="1.2"/>
        </g>
        <g id="g3464" transform="translate(25.456 2.004)">
          <path id="path3466" d="M-39.46,0a3.291,3.291,0,0,0-3.291,3.291l6.181-1.545A3.278,3.278,0,0,0-39.46,0Z" transform="translate(42.752)" fill="none" stroke="#2196f3" stroke-linecap="round" stroke-linejoin="round" stroke-miterlimit="10" stroke-width="1.2"/>
        </g>
        <g id="g3468" transform="translate(38.623 13.525)">
          <path id="path3470" d="M0-39.46v-3.291" transform="translate(0 42.752)" fill="none" stroke="#2196f3" stroke-linecap="round" stroke-linejoin="round" stroke-miterlimit="10" stroke-width="1.2"/>
        </g>
        <g id="g3472" transform="translate(28.748 32.451)">
          <path id="path3474" d="M0,0H3.291" fill="none" stroke="#2196f3" stroke-linecap="round" stroke-linejoin="round" stroke-miterlimit="10" stroke-width="1.2"/>
        </g>
        <g id="g3476" transform="translate(17.279 33.634)">
          <path id="path3478" d="M0,0,2.777,1.646" fill="none" stroke="#2196f3" stroke-linecap="round" stroke-linejoin="round" stroke-miterlimit="10" stroke-width="1.2"/>
        </g>
        <g id="g3480" transform="translate(19.696 15.993)">
          <path id="path3482" d="M0-29.6H4.439a5.544,5.544,0,0,0,4.613-2.469" transform="translate(0 32.064)" fill="none" stroke="#2196f3" stroke-linecap="round" stroke-linejoin="round" stroke-miterlimit="10" stroke-width="1.2"/>
        </g>
        <g id="g3484" transform="translate(17.228 12.702)">
          <path id="path3486" d="M0,0H4.937" fill="none" stroke="#2196f3" stroke-linecap="round" stroke-linejoin="round" stroke-miterlimit="10" stroke-width="1.2"/>
        </g>
        <g id="g3488" transform="translate(22.216 16.71)">
          <path id="path3490" d="M-193.328,0l-16.126,23.765" transform="translate(209.454)" fill="none" stroke="#2196f3" stroke-linecap="round" stroke-linejoin="round" stroke-miterlimit="10" stroke-width="1.2"/>
        </g>
        <g id="g3492" transform="translate(40.617 10.233)">
          <path id="path3494" d="M-25.412,0l-2.12,3.124" transform="translate(27.532)" fill="none" stroke="#2196f3" stroke-linecap="round" stroke-linejoin="round" stroke-miterlimit="10" stroke-width="1.2"/>
        </g>
      </g>
    </g>
  </g>
</svg>
