<svg xmlns="http://www.w3.org/2000/svg" xmlns:xlink="http://www.w3.org/1999/xlink" width="52.559" height="52.559" viewBox="0 0 52.559 52.559">
  <defs>
    <clipPath id="clip-path">
      <path id="path2727" d="M0-682.665H52.559v52.559H0Z" transform="translate(0 682.665)"/>
    </clipPath>
  </defs>
  <g id="g2721" transform="translate(0 682.665)">
    <g id="g2723" transform="translate(0 -682.665)">
      <g id="g2725" clip-path="url(#clip-path)">
        <g id="g2731" transform="translate(0.77 23.183)">
          <path id="path2733" d="M-611.646-30.462h0a129.32,129.32,0,0,0-51.019,0h0" transform="translate(662.665 33.003)" fill="none" stroke="#2196f3" stroke-linecap="round" stroke-linejoin="round" stroke-miterlimit="10" stroke-width="1.2"/>
        </g>
        <g id="g2735" transform="translate(37.106 28.216)">
          <path id="path2737" d="M0-36.419A26.357,26.357,0,0,1,14.683-39.33" transform="translate(0 39.456)" fill="none" stroke="#2196f3" stroke-linecap="round" stroke-linejoin="round" stroke-miterlimit="10" stroke-width="1.2"/>
        </g>
        <g id="g2739" transform="translate(0.77 33.8)">
          <path id="path2741" d="M0-9.346a18.332,18.332,0,0,1,7.032-.4A35.5,35.5,0,0,1,12.472-8.3c3.9,1.437,7.8,2.874,12.01,1.95a24.682,24.682,0,0,0,7.747-3.771" transform="translate(0 10.125)" fill="none" stroke="#2196f3" stroke-linecap="round" stroke-linejoin="round" stroke-miterlimit="10" stroke-width="1.2"/>
        </g>
        <g id="g2743" transform="translate(0.77 37.482)">
          <path id="path2745" d="M0-35.622s2.916-2.883,18.01.586c12.01,2.76,11.666-5.278,33.009-3.215" transform="translate(0 38.593)" fill="none" stroke="#2196f3" stroke-linecap="round" stroke-linejoin="round" stroke-miterlimit="10" stroke-width="1.2"/>
        </g>
        <g id="g2747" transform="translate(31.409 51.789)">
          <path id="path2749" d="M-62.617,0H-67.84" transform="translate(67.84)" fill="none" stroke="#2196f3" stroke-linecap="round" stroke-linejoin="round" stroke-miterlimit="10" stroke-width="1.2"/>
        </g>
        <g id="g2751" transform="translate(5.835 44.225)">
          <path id="path2753" d="M-62.617,0H-67.84" transform="translate(67.84)" fill="none" stroke="#2196f3" stroke-linecap="round" stroke-linejoin="round" stroke-miterlimit="10" stroke-width="1.2"/>
        </g>
        <g id="g2755" transform="translate(36.725 47.052)">
          <path id="path2757" d="M-118.685,0h-9.9" transform="translate(128.585)" fill="none" stroke="#2196f3" stroke-linecap="round" stroke-linejoin="round" stroke-miterlimit="10" stroke-width="1.2"/>
        </g>
        <g id="g2759" transform="translate(15.03 15.18)">
          <path id="path2761" d="M-18.918-136.787-20.5-148.2" transform="translate(20.496 148.197)" fill="none" stroke="#2196f3" stroke-linecap="round" stroke-linejoin="round" stroke-miterlimit="10" stroke-width="1.2"/>
        </g>
        <g id="g2763" transform="translate(2.793 2.891)">
          <path id="path2765" d="M-11.533-89.921a12.271,12.271,0,0,0-.844,6.465l24.239-3.352a12.262,12.262,0,0,0-13.8-10.5,12.157,12.157,0,0,0-7.515,4.058" transform="translate(12.495 97.421)" fill="none" stroke="#2196f3" stroke-linecap="round" stroke-linejoin="round" stroke-miterlimit="10" stroke-width="1.2"/>
        </g>
        <g id="g2767" transform="translate(7.109 2.959)">
          <path id="path2769" d="M-2.19-159.338c-.93-6.723,1.781-12.652,6.054-13.243s8.492,4.38,9.421,11.1" transform="translate(2.373 172.628)" fill="none" stroke="#2196f3" stroke-linecap="round" stroke-linejoin="round" stroke-miterlimit="10" stroke-width="1.2"/>
        </g>
        <g id="g2771" transform="translate(11.789 3.001)">
          <path id="path2773" d="M-5.661-150.6c-.93-6.723-.444-12.344,1.085-12.556s3.522,5.067,4.452,11.79" transform="translate(6.133 163.163)" fill="none" stroke="#2196f3" stroke-linejoin="round" stroke-miterlimit="10" stroke-width="1.2"/>
        </g>
        <g id="g2775" transform="translate(6.366 28.486)">
          <path id="path2777" d="M-8.916-18.46a.77.77,0,0,0,0-1.54.77.77,0,0,0,0,1.54" transform="translate(9.66 20)" fill="#2196f3"/>
        </g>
        <g id="g2779" transform="translate(24.544 32.182)">
          <path id="path2781" d="M-8.916-18.46a.77.77,0,0,0,0-1.54.77.77,0,0,0,0,1.54" transform="translate(9.659 20)" fill="#2196f3"/>
        </g>
        <g id="g2783" transform="translate(32.39 26.536)">
          <path id="path2785" d="M-8.916-18.46a.77.77,0,0,0,0-1.54.77.77,0,0,0,0,1.54" transform="translate(9.66 20)" fill="#2196f3"/>
        </g>
        <g id="g2787" transform="translate(37.672 5.501)">
          <path id="path2789" d="M-112.52-56.259a4.693,4.693,0,0,1-4.693,4.693,4.693,4.693,0,0,1-4.693-4.693,4.693,4.693,0,0,1,4.693-4.693A4.693,4.693,0,0,1-112.52-56.259Z" transform="translate(121.905 60.952)" fill="none" stroke="#2196f3" stroke-linecap="round" stroke-linejoin="round" stroke-miterlimit="10" stroke-width="1.2"/>
        </g>
        <g id="g2791" transform="translate(42.365 0.77)">
          <path id="path2793" d="M0,0V1.877" fill="none" stroke="#2196f3" stroke-linecap="round" stroke-linejoin="round" stroke-miterlimit="10" stroke-width="1.2"/>
        </g>
        <g id="g2795" transform="translate(37.653 2.032)">
          <path id="path2797" d="M0,0,.939,1.626" fill="none" stroke="#2196f3" stroke-linecap="round" stroke-linejoin="round" stroke-miterlimit="10" stroke-width="1.2"/>
        </g>
        <g id="g2799" transform="translate(34.204 5.482)">
          <path id="path2801" d="M0,0,1.626.939" fill="none" stroke="#2196f3" stroke-linecap="round" stroke-linejoin="round" stroke-miterlimit="10" stroke-width="1.2"/>
        </g>
        <g id="g2803" transform="translate(32.941 10.194)">
          <path id="path2805" d="M0,0H1.877" fill="none" stroke="#2196f3" stroke-linecap="round" stroke-linejoin="round" stroke-miterlimit="10" stroke-width="1.2"/>
        </g>
        <g id="g2807" transform="translate(34.204 13.967)">
          <path id="path2809" d="M0-11.252l1.626-.939" transform="translate(0 12.191)" fill="none" stroke="#2196f3" stroke-linecap="round" stroke-linejoin="round" stroke-miterlimit="10" stroke-width="1.2"/>
        </g>
        <g id="g2811" transform="translate(37.653 16.729)">
          <path id="path2813" d="M0-19.489l.939-1.626" transform="translate(0 21.115)" fill="none" stroke="#2196f3" stroke-linecap="round" stroke-linejoin="round" stroke-miterlimit="10" stroke-width="1.2"/>
        </g>
        <g id="g2815" transform="translate(42.365 17.741)">
          <path id="path2817" d="M0-22.5v-1.877" transform="translate(0 24.381)" fill="none" stroke="#2196f3" stroke-linecap="round" stroke-linejoin="round" stroke-miterlimit="10" stroke-width="1.2"/>
        </g>
        <g id="g2819" transform="translate(46.138 16.729)">
          <path id="path2821" d="M-11.252-19.489l-.939-1.626" transform="translate(12.191 21.115)" fill="none" stroke="#2196f3" stroke-linecap="round" stroke-linejoin="round" stroke-miterlimit="10" stroke-width="1.2"/>
        </g>
        <g id="g2823" transform="translate(48.901 13.967)">
          <path id="path2825" d="M-19.489-11.252l-1.626-.939" transform="translate(21.115 12.191)" fill="none" stroke="#2196f3" stroke-linecap="round" stroke-linejoin="round" stroke-miterlimit="10" stroke-width="1.2"/>
        </g>
        <g id="g2827" transform="translate(49.912 10.194)">
          <path id="path2829" d="M-22.5,0h-1.877" transform="translate(24.381)" fill="none" stroke="#2196f3" stroke-linecap="round" stroke-linejoin="round" stroke-miterlimit="10" stroke-width="1.2"/>
        </g>
        <g id="g2831" transform="translate(48.901 5.482)">
          <path id="path2833" d="M-19.489,0l-1.626.939" transform="translate(21.115)" fill="none" stroke="#2196f3" stroke-linecap="round" stroke-linejoin="round" stroke-miterlimit="10" stroke-width="1.2"/>
        </g>
        <g id="g2835" transform="translate(46.138 2.032)">
          <path id="path2837" d="M-11.252,0l-.939,1.626" transform="translate(12.191)" fill="none" stroke="#2196f3" stroke-linecap="round" stroke-linejoin="round" stroke-miterlimit="10" stroke-width="1.2"/>
        </g>
      </g>
    </g>
  </g>
</svg>
