<svg xmlns="http://www.w3.org/2000/svg" xmlns:xlink="http://www.w3.org/1999/xlink" width="57.856" height="57.856" viewBox="0 0 57.856 57.856">
  <defs>
    <clipPath id="clip-path">
      <path id="path2187" d="M0-682.665H57.856v57.856H0Z" transform="translate(0 682.665)"/>
    </clipPath>
  </defs>
  <g id="Family" transform="translate(0 682.665)">
    <g id="g2183" transform="translate(0 -682.665)">
      <g id="g2185" clip-path="url(#clip-path)">
        <g id="g2191" transform="translate(37.386 41.207)">
          <path id="path2193" d="M-190.066,0a6.772,6.772,0,0,1,.992,2.868l1.014,7.843c.079.619-.112.782-.711.782h-18.895" transform="translate(207.666)" fill="none" stroke="#2196f3" stroke-linecap="round" stroke-linejoin="round" stroke-miterlimit="10" stroke-width="1"/>
        </g>
        <g id="g2195" transform="translate(32.152 39.159)">
          <path id="path2197" d="M-.012,0h0" transform="translate(0.013 0)" fill="none" stroke="#2196f3" stroke-linecap="round" stroke-linejoin="round" stroke-miterlimit="10" stroke-width="1"/>
        </g>
        <g id="g2199" transform="translate(34.836 37.419)">
          <path id="path2201" d="M0-6.907c.775-.236,1.559-.433,2.3-.636v0L6.509-4.7a1.879,1.879,0,0,0,1.11.478h0A1.879,1.879,0,0,0,8.73-4.7l4.206-2.85v0a27.348,27.348,0,0,1,4.208,1.337" transform="translate(0 7.547)" fill="none" stroke="#2196f3" stroke-linecap="round" stroke-linejoin="round" stroke-miterlimit="10" stroke-width="1"/>
        </g>
        <g id="g2203" transform="translate(33.337 12.633)">
          <path id="path2205" d="M-.057-136.39h.43c3.823,0,1.291-5.041,4.613-5.041H7.869c4.336,0,5.076,4.374,8.627,4.374h1.655v-4.333c0-6.694-10.754-10.032-14.126-5.651-4.4.389-4.081,6.254-4.081,7.029Z" transform="translate(0.062 149.02)" fill="none" stroke="#2196f3" stroke-linecap="round" stroke-linejoin="round" stroke-miterlimit="10" stroke-width="1"/>
        </g>
        <g id="g2207" transform="translate(33.342 24.596)">
          <path id="path2209" d="M-196.626,0V2.307c0,3.264-3.067,7.361-6.816,8.752a6.426,6.426,0,0,1-2.276.459A6.456,6.456,0,0,1-208,11.059c-3.749-1.391-6.835-5.488-6.835-8.752V.667" transform="translate(214.833)" fill="none" stroke="#2196f3" stroke-linecap="round" stroke-linejoin="round" stroke-miterlimit="10" stroke-width="1"/>
        </g>
        <g id="g2211" transform="translate(37.159 37.42)">
          <path id="path2213" d="M0,0,4.205,2.849a1.507,1.507,0,0,0,2.2,0L10.613,0" fill="none" stroke="#2196f3" stroke-linecap="round" stroke-linejoin="round" stroke-miterlimit="10" stroke-width="1"/>
        </g>
        <g id="g2215" transform="translate(37.139 37.42)">
          <path id="path2217" d="M-114.616,0l-4.205,2.849a1.507,1.507,0,0,1-2.2,0L-125.229,0" transform="translate(125.229)" fill="none" stroke="#2196f3" stroke-linecap="round" stroke-linejoin="round" stroke-miterlimit="10" stroke-width="1"/>
        </g>
        <g id="g2219" transform="translate(40.873 31.389)">
          <path id="path2221" d="M0,0A2.238,2.238,0,0,0,3.166,0" fill="none" stroke="#2196f3" stroke-linecap="round" stroke-linejoin="round" stroke-miterlimit="10" stroke-width="1"/>
        </g>
        <g id="g2223" transform="translate(37.688 26.574)">
          <path id="path2225" d="M0-4.135a1.39,1.39,0,0,1,1.916,0" transform="translate(0 4.518)" fill="none" stroke="#2196f3" stroke-linecap="round" stroke-linejoin="round" stroke-miterlimit="10" stroke-width="1"/>
        </g>
        <g id="g2227" transform="translate(45.307 26.574)">
          <path id="path2229" d="M0-4.135a1.394,1.394,0,0,1,1.919,0" transform="translate(0 4.518)" fill="none" stroke="#2196f3" stroke-linecap="round" stroke-linejoin="round" stroke-miterlimit="10" stroke-width="1"/>
        </g>
        <g id="g2231" transform="translate(37.139 35.062)">
          <path id="path2233" d="M-114.822-25.465c-1.192-.325-1.5-1.86-1.75-2.358m-7.132,0c-.242.5-.558,2.033-1.75,2.358" transform="translate(125.454 27.823)" fill="none" stroke="#2196f3" stroke-linecap="round" stroke-linejoin="round" stroke-miterlimit="10" stroke-width="1"/>
        </g>
        <g id="g2235" transform="translate(9.518 37.553)">
          <path id="path2237" d="M0,0,4.17,2.824a1.491,1.491,0,0,0,2.181,0L10.521,0" fill="none" stroke="#2196f3" stroke-linecap="round" stroke-linejoin="round" stroke-miterlimit="10" stroke-width="1"/>
        </g>
        <g id="g2239" transform="translate(7.178 24.296)">
          <path id="path2241" d="M-82.079-7.751a14.048,14.048,0,0,1-2.857-.635c-2.126-.549-1.667,1.8-4.744,2.02V-4.04c0,2.728,2.563,6.152,5.694,7.316a5.4,5.4,0,0,0,1.907.383,5.4,5.4,0,0,0,1.9-.383c3.134-1.165,5.7-4.588,5.7-7.316V-6.366c-3.08-.217-2.621-2.569-4.744-2.02A14.049,14.049,0,0,1-82.079-7.751Z" transform="translate(89.68 8.469)" fill="none" stroke="#2196f3" stroke-linecap="round" stroke-linejoin="round" stroke-miterlimit="10" stroke-width="1"/>
        </g>
        <g id="g2243" transform="translate(7.888 48.252)">
          <path id="path2245" d="M0-48.033v-4.448" transform="translate(0 52.481)" fill="none" stroke="#2196f3" stroke-linecap="round" stroke-linejoin="round" stroke-miterlimit="10" stroke-width="1"/>
        </g>
        <g id="g2247" transform="translate(1.198 35.215)">
          <path id="path2249" d="M-236.89-35.732a26.353,26.353,0,0,0-3.1-.97c-1.183-.322-1.5-1.847-1.737-2.339m-7.049,0c-.239.491-.552,2.017-1.734,2.339-3.354.916-6.67,1.7-7.3,6.6l-1,7.776c-.08.613.108.775.7.775h18.392" transform="translate(258.825 39.041)" fill="none" stroke="#2196f3" stroke-linecap="round" stroke-linejoin="round" stroke-miterlimit="10" stroke-width="1"/>
        </g>
        <g id="g2251" transform="translate(22.787 40.853)">
          <path id="path2253" d="M-134.894,0V1.911c0,2.24-2.107,5.057-4.683,6.011a4.029,4.029,0,0,1-3.128,0c-2.576-.954-4.68-3.771-4.68-6.011V0" transform="translate(147.385)" fill="none" stroke="#2196f3" stroke-linecap="round" stroke-linejoin="round" stroke-miterlimit="10" stroke-width="1"/>
        </g>
        <g id="g2255" transform="translate(20.309 48.367)">
          <path id="path2257" d="M-120.606,0c.169.345.386,1.4,1.205,1.627,2.33.635,5.069,1.155,5.069,4.579v1.65a.5.5,0,0,1-.5.5h-16.435a.505.505,0,0,1-.5-.5V6.206c0-3.424,2.742-3.944,5.069-4.579C-125.886,1.4-125.669.345-125.5,0" transform="translate(131.774 0)" fill="none" stroke="#2196f3" stroke-linecap="round" stroke-linejoin="round" stroke-miterlimit="10" stroke-width="1"/>
        </g>
        <g id="g2259" transform="translate(24.304 50.284)">
          <path id="path2261" d="M0,0,3.88,2.278a1.285,1.285,0,0,0,1.693,0L9.453,0" fill="none" stroke="#2196f3" stroke-linecap="round" stroke-linejoin="round" stroke-miterlimit="10" stroke-width="1"/>
        </g>
        <g id="g2263" transform="translate(26.548 42.474)">
          <path id="path2265" d="M0,0V.539" fill="none" stroke="#2196f3" stroke-linecap="round" stroke-linejoin="round" stroke-miterlimit="10" stroke-width="1"/>
        </g>
        <g id="g2267" transform="translate(31.35 42.474)">
          <path id="path2269" d="M0,0V.539" fill="none" stroke="#2196f3" stroke-linecap="round" stroke-linejoin="round" stroke-miterlimit="10" stroke-width="1"/>
        </g>
        <g id="g2271" transform="translate(22.786 33.804)">
          <path id="path2273" d="M-67.448-63.815a11.144,11.144,0,0,1-2.35-.52c-1.747-.45-1.368,1.481-3.9,1.659,0-4.642,3.121-7,6.246-7.048,3.121.051,6.246,2.406,6.246,7.048-2.528-.179-2.152-2.109-3.9-1.659A11.226,11.226,0,0,1-67.448-63.815Z" transform="translate(73.693 69.724)" fill="none" stroke="#2196f3" stroke-linecap="round" stroke-linejoin="round" stroke-miterlimit="10" stroke-width="1"/>
        </g>
        <g id="g2275" transform="translate(13.822 32.688)">
          <path id="path2277" d="M0,0A1.537,1.537,0,0,0,2.178,0" fill="none" stroke="#2196f3" stroke-linecap="round" stroke-linejoin="round" stroke-miterlimit="10" stroke-width="1"/>
        </g>
        <g id="g2279" transform="translate(10.378 28.027)">
          <path id="path2281" d="M0-3.954a1.318,1.318,0,0,1,1.824,0" transform="translate(0 4.32)" fill="none" stroke="#2196f3" stroke-linecap="round" stroke-linejoin="round" stroke-miterlimit="10" stroke-width="1"/>
        </g>
        <g id="g2283" transform="translate(17.622 28.027)">
          <path id="path2285" d="M0-3.954a1.315,1.315,0,0,1,1.82,0" transform="translate(0 4.32)" fill="none" stroke="#2196f3" stroke-linecap="round" stroke-linejoin="round" stroke-miterlimit="10" stroke-width="1"/>
        </g>
        <g id="g2287" transform="translate(0.848 13.585)">
          <path id="path2289" d="M-270.7-184.622a57.926,57.926,0,0,1-.271-6.276,18.273,18.273,0,0,0-.4-3.057c-2.152-9.071-14.235-9.658-16.9-4.521-.112.214-.312.207-.523.242-2.117.338-3.9,3.354-3.9,7.361,0,7.173-.768,10.925-2.512,13.5-1.145,1.688-.316,1.771.7,1.975a8.4,8.4,0,0,1,1.62.469" transform="translate(295.768 201.718)" fill="none" stroke="#2196f3" stroke-linecap="round" stroke-linejoin="round" stroke-miterlimit="10" stroke-width="1"/>
        </g>
        <g id="g2291" transform="translate(20.374 1.131)">
          <path id="path2293" d="M-81.141-145.833c-.112,0-.22-.1-.44-.271l-5.095-5.054-.695-.689a4.7,4.7,0,0,1,0-6.455c1.556-1.611,4.068-1.206,5.732.29.306.278.415.415.5.415s.188-.137.5-.415c1.661-1.5,4.173-1.9,5.729-.29a4.7,4.7,0,0,1,0,6.455l-.695.689L-80.7-146.1C-80.924-145.932-81.033-145.836-81.141-145.833Z" transform="translate(88.655 159.337)" fill="none" stroke="#2196f3" stroke-linecap="round" stroke-linejoin="round" stroke-miterlimit="10" stroke-width="1"/>
        </g>
        <g id="g2295" transform="translate(49.516 48.252)">
          <path id="path2297" d="M0-48.033v-4.448" transform="translate(0 52.481)" fill="none" stroke="#2196f3" stroke-linecap="round" stroke-linejoin="round" stroke-miterlimit="10" stroke-width="1"/>
        </g>
      </g>
    </g>
  </g>
</svg>
