<svg xmlns="http://www.w3.org/2000/svg" xmlns:xlink="http://www.w3.org/1999/xlink" width="52.559" height="52.559" viewBox="0 0 52.559 52.559">
  <defs>
    <clipPath id="clip-path">
      <path id="path257" d="M0-682.665H52.559v52.559H0Z" transform="translate(0 682.665)"/>
    </clipPath>
  </defs>
  <g id="g243" transform="translate(0 682.665)">
    <g id="g245" transform="translate(10.006 -647.136)">
      <path id="path247" d="M0-159.242v-13.283" transform="translate(0 172.525)" fill="none" stroke="#2196f3" stroke-linecap="round" stroke-linejoin="round" stroke-miterlimit="10" stroke-width="1.2"/>
    </g>
    <g id="g249" transform="translate(42.553 -647.136)">
      <path id="path251" d="M0,0V13.283" fill="none" stroke="#2196f3" stroke-linecap="round" stroke-linejoin="round" stroke-miterlimit="10" stroke-width="1.2"/>
    </g>
    <g id="g253" transform="translate(0 -682.665)">
      <g id="g255" clip-path="url(#clip-path)">
        <g id="g261" transform="translate(8.291 32.1)">
          <path id="path263" d="M-264.253-41.112h-20.327a1.715,1.715,0,0,1-1.715-1.715,1.715,1.715,0,0,1,1.715-1.715h32.547a1.715,1.715,0,0,1,1.715,1.715,1.715,1.715,0,0,1-1.715,1.715h-9.14" transform="translate(286.295 44.541)" fill="none" stroke="#2196f3" stroke-linecap="round" stroke-linejoin="round" stroke-miterlimit="10" stroke-width="1.2"/>
        </g>
        <g id="g265" transform="translate(22.54 38.958)">
          <path id="path267" d="M0-118.13v-8.71a1.143,1.143,0,0,1,1.143-1.143H6.335a1.143,1.143,0,0,1,1.143,1.143v8.71" transform="translate(0 127.984)" fill="none" stroke="#2196f3" stroke-linecap="round" stroke-linejoin="round" stroke-miterlimit="10" stroke-width="1.2"/>
        </g>
        <g id="g269" transform="translate(24.222 9.265)">
          <path id="path271" d="M0-2.917a8.782,8.782,0,0,1,10.736,7.23l2.307,15.362" transform="translate(0 3.16)" fill="none" stroke="#2196f3" stroke-linecap="round" stroke-linejoin="round" stroke-miterlimit="10" stroke-width="1.2"/>
        </g>
        <g id="g273" transform="translate(15.293 10.563)">
          <path id="path275" d="M0-258.193l2.307-15.362a8.769,8.769,0,0,1,4.084-6.175" transform="translate(0 279.73)" fill="none" stroke="#2196f3" stroke-linecap="round" stroke-linejoin="round" stroke-miterlimit="10" stroke-width="1.2"/>
        </g>
        <g id="g277" transform="translate(17.706 16.171)">
          <path id="path279" d="M0,0H17.146" fill="none" stroke="#2196f3" stroke-linecap="round" stroke-linejoin="round" stroke-miterlimit="10" stroke-width="1.2"/>
        </g>
        <g id="g281" transform="translate(19.284 12.742)">
          <path id="path283" d="M-167.73,0h-13.991" transform="translate(181.721)" fill="none" stroke="#2196f3" stroke-linecap="round" stroke-linejoin="round" stroke-miterlimit="10" stroke-width="1.2"/>
        </g>
        <g id="g285" transform="translate(29.387 16.171)">
          <path id="path287" d="M0,0,1.715,15.929" fill="none" stroke="#2196f3" stroke-linecap="round" stroke-linejoin="round" stroke-miterlimit="10" stroke-width="1.2"/>
        </g>
        <g id="g289" transform="translate(21.457 16.171)">
          <path id="path291" d="M0-190.962,1.715-206.89" transform="translate(0 206.89)" fill="none" stroke="#2196f3" stroke-linecap="round" stroke-linejoin="round" stroke-miterlimit="10" stroke-width="1.2"/>
        </g>
        <g id="g293" transform="translate(22.878 20.706)">
          <path id="path295" d="M0,0H6.812" fill="none" stroke="#2196f3" stroke-linecap="round" stroke-linejoin="round" stroke-miterlimit="10" stroke-width="1.2"/>
        </g>
        <g id="g297" transform="translate(21.945 27.565)">
          <path id="path299" d="M0,0H8.669" fill="none" stroke="#2196f3" stroke-linecap="round" stroke-linejoin="round" stroke-miterlimit="10" stroke-width="1.2"/>
        </g>
        <g id="g301" transform="translate(26.279 5.799)">
          <path id="path303" d="M0-41.548v-3.466" transform="translate(0 45.013)" fill="none" stroke="#2196f3" stroke-linecap="round" stroke-linejoin="round" stroke-miterlimit="10" stroke-width="1.2"/>
        </g>
        <g id="g305" transform="translate(26.279 0.77)">
          <path id="path307" d="M0-60.3v-5.03H5.022a.572.572,0,0,1,.342,1.03Z" transform="translate(0 65.326)" fill="none" stroke="#2196f3" stroke-linecap="round" stroke-linejoin="round" stroke-miterlimit="10" stroke-width="1.2"/>
        </g>
        <g id="g309" transform="translate(33.304 20.682)">
          <path id="path311" d="M0,0H2.222" fill="none" stroke="#2196f3" stroke-linecap="round" stroke-linejoin="round" stroke-miterlimit="10" stroke-width="1.2"/>
        </g>
        <g id="g313" transform="translate(34.359 27.541)">
          <path id="path315" d="M0,0H2.222" fill="none" stroke="#2196f3" stroke-linecap="round" stroke-linejoin="round" stroke-miterlimit="10" stroke-width="1.2"/>
        </g>
        <g id="g317" transform="translate(17.008 20.682)">
          <path id="path319" d="M-26.633,0h-2.222" transform="translate(28.855)" fill="none" stroke="#2196f3" stroke-linecap="round" stroke-linejoin="round" stroke-miterlimit="10" stroke-width="1.2"/>
        </g>
        <g id="g321" transform="translate(15.978 27.541)">
          <path id="path323" d="M-26.632,0h-2.221" transform="translate(28.853)" fill="none" stroke="#2196f3" stroke-linecap="round" stroke-linejoin="round" stroke-miterlimit="10" stroke-width="1.2"/>
        </g>
        <g id="g325" transform="translate(39.123 35.529)">
          <path id="path327" d="M0,0V13.283" fill="none" stroke="#2196f3" stroke-linecap="round" stroke-linejoin="round" stroke-miterlimit="10" stroke-width="1.2"/>
        </g>
        <g id="g329" transform="translate(34.979 35.529)">
          <path id="path331" d="M0-159.242v-13.283" transform="translate(0 172.525)" fill="none" stroke="#2196f3" stroke-linecap="round" stroke-linejoin="round" stroke-miterlimit="10" stroke-width="1.2"/>
        </g>
        <g id="g333" transform="translate(34.979 38.958)">
          <path id="path335" d="M0,0H4.145" fill="none" stroke="#2196f3" stroke-linecap="round" stroke-linejoin="round" stroke-miterlimit="10" stroke-width="1.2"/>
        </g>
        <g id="g337" transform="translate(34.979 42.387)">
          <path id="path339" d="M0,0H4.145" fill="none" stroke="#2196f3" stroke-linecap="round" stroke-linejoin="round" stroke-miterlimit="10" stroke-width="1.2"/>
        </g>
        <g id="g341" transform="translate(34.979 45.817)">
          <path id="path343" d="M0,0H4.145" fill="none" stroke="#2196f3" stroke-linecap="round" stroke-linejoin="round" stroke-miterlimit="10" stroke-width="1.2"/>
        </g>
        <g id="g345" transform="translate(13.435 35.529)">
          <path id="path347" d="M0-159.242v-13.283" transform="translate(0 172.525)" fill="none" stroke="#2196f3" stroke-linecap="round" stroke-linejoin="round" stroke-miterlimit="10" stroke-width="1.2"/>
        </g>
        <g id="g349" transform="translate(17.58 35.529)">
          <path id="path351" d="M0,0V13.283" fill="none" stroke="#2196f3" stroke-linecap="round" stroke-linejoin="round" stroke-miterlimit="10" stroke-width="1.2"/>
        </g>
        <g id="g353" transform="translate(13.435 38.958)">
          <path id="path355" d="M0,0H4.145" fill="none" stroke="#2196f3" stroke-linecap="round" stroke-linejoin="round" stroke-miterlimit="10" stroke-width="1.2"/>
        </g>
        <g id="g357" transform="translate(13.435 42.387)">
          <path id="path359" d="M0,0H4.145" fill="none" stroke="#2196f3" stroke-linecap="round" stroke-linejoin="round" stroke-miterlimit="10" stroke-width="1.2"/>
        </g>
        <g id="g361" transform="translate(13.435 45.817)">
          <path id="path363" d="M0,0H4.145" fill="none" stroke="#2196f3" stroke-linecap="round" stroke-linejoin="round" stroke-miterlimit="10" stroke-width="1.2"/>
        </g>
        <g id="g365" transform="translate(6.259 48.812)">
          <path id="path367" d="M-465.556-35.69h-37.625a1.4,1.4,0,0,1-1.208-1.54v-1.027a.411.411,0,0,1,.411-.411h39.22a.411.411,0,0,1,.411.411v1.027A1.4,1.4,0,0,1-465.556-35.69Z" transform="translate(504.389 38.667)" fill="none" stroke="#2196f3" stroke-linecap="round" stroke-linejoin="round" stroke-miterlimit="10" stroke-width="1.2"/>
        </g>
      </g>
    </g>
  </g>
</svg>
