<svg xmlns="http://www.w3.org/2000/svg" width="41.23" height="41.226" viewBox="0 0 41.23 41.226">
  <g id="sunbed" transform="translate(0.75 0.918)" opacity="0.9">
    <g id="Group_77815" data-name="Group 77815" transform="translate(0 24.973)">
      <g id="XMLID_1975_">
        <path id="XMLID_771_" d="M11.082,330.2h9.339a2.1,2.1,0,0,0,1.485-.615l5.658-5.658a2.1,2.1,0,0,0,0-2.97h0a2.1,2.1,0,0,0-2.97,0L19.551,326H11" transform="translate(11.378 -320.346)" fill="none" stroke="#dadada" stroke-linecap="round" stroke-linejoin="round" stroke-miterlimit="10" stroke-width="1.5"/>
        <path id="XMLID_1976_" d="M348.5,390.428H337.208a2.1,2.1,0,0,0-2.1,2.1h0a2.1,2.1,0,0,0,2.1,2.1H348.42" transform="translate(-335.108 -384.77)" fill="none" stroke="#dadada" stroke-linecap="round" stroke-linejoin="round" stroke-miterlimit="10" stroke-width="1.5"/>
      </g>
      <path id="XMLID_1974_" d="M87.812,442.463l2.182,4.726h3.652l-1.352-4.726Z" transform="translate(-60.29 -432.605)" fill="none" stroke="#dadada" stroke-linecap="round" stroke-linejoin="round" stroke-miterlimit="10" stroke-width="1.5"/>
      <path id="XMLID_769_" d="M414.456,442.463l-2.182,4.726h-3.652l1.352-4.726Z" transform="translate(-406.999 -432.605)" fill="none" stroke="#dadada" stroke-linecap="round" stroke-linejoin="round" stroke-miterlimit="10" stroke-width="1.5"/>
    </g>
    <g id="Group_77817" data-name="Group 77817" transform="translate(10.113 0)">
      <line id="Line_804" data-name="Line 804" y1="2.146" x2="0.575" transform="translate(16.276 0)" fill="none" stroke="#dadada" stroke-linecap="round" stroke-linejoin="round" stroke-miterlimit="10" stroke-width="1.5"/>
      <line id="Line_805" data-name="Line 805" x1="3.788" y2="14.136" transform="translate(8.652 16.463)" fill="none" stroke="#dadada" stroke-linecap="round" stroke-linejoin="round" stroke-miterlimit="10" stroke-width="1.5"/>
      <path id="Path_154701" data-name="Path 154701" d="M51.771,190.716l4.466,1.2a2.148,2.148,0,0,0,2.63-1.519l.363-1.356-8.615-2.308-.363,1.356A2.148,2.148,0,0,0,51.771,190.716Z" transform="translate(-32.95 -172.543)" fill="none" stroke="#dadada" stroke-linecap="round" stroke-linejoin="round" stroke-miterlimit="10" stroke-width="1.5"/>
      <path id="Path_154702" data-name="Path 154702" d="M158.483,162.122l4.466,1.2a2.148,2.148,0,0,0,2.63-1.519l.363-1.356-8.615-2.308-.363,1.356A2.148,2.148,0,0,0,158.483,162.122Z" transform="translate(-148.276 -146.257)" fill="none" stroke="#dadada" stroke-linecap="round" stroke-linejoin="round" stroke-miterlimit="10" stroke-width="1.5"/>
      <path id="Path_154703" data-name="Path 154703" d="M265.194,133.528l4.466,1.2a2.148,2.148,0,0,0,2.63-1.519l.363-1.356-8.615-2.308-.363,1.356A2.148,2.148,0,0,0,265.194,133.528Z" transform="translate(-263.602 -119.971)" fill="none" stroke="#dadada" stroke-linecap="round" stroke-linejoin="round" stroke-miterlimit="10" stroke-width="1.5"/>
      <g id="Group_77816" data-name="Group 77816" transform="translate(0.437 1.68)">
        <path id="Path_154704" data-name="Path 154704" d="M153.941,49.007c1.275-6.284.592-11.509-1.748-12.137s-5.545,3.557-7.582,9.637" transform="translate(-136.354 -36.405)" fill="none" stroke="#dadada" stroke-linecap="round" stroke-linejoin="round" stroke-miterlimit="10" stroke-width="1.5"/>
        <path id="Path_154705" data-name="Path 154705" d="M75.308,46.622A13.575,13.575,0,0,0,49.463,39.7Z" transform="translate(-49.463 -31.807)" fill="none" stroke="#dadada" stroke-linecap="round" stroke-linejoin="round" stroke-miterlimit="10" stroke-width="1.5"/>
      </g>
    </g>
    <rect id="Rectangle_23392" data-name="Rectangle 23392" width="8.987" height="6.241" transform="translate(13.392 30.631)" fill="none" stroke="#dadada" stroke-linecap="round" stroke-linejoin="round" stroke-miterlimit="10" stroke-width="1.5"/>
  </g>
</svg>
