<svg width="37" height="30" viewBox="0 0 37 30" fill="none" xmlns="http://www.w3.org/2000/svg">
<path fill-rule="evenodd" clip-rule="evenodd" d="M11.7935 27.4803H13.4947L15.7358 24.9719H14.5459V23.4376H18.2254L14.0776 18.7471L15.1958 17.7242L17.7093 20.559V20.447H23.8594C24.1269 20.447 24.3659 20.5931 24.4997 20.8123L26.3155 23.4327H29.7322C29.9568 23.4327 30.1623 23.535 30.3008 23.6958L34.0425 27.4755H37V29.2338H0V27.4755H10.1783V14.4706H0.683334C0.363171 14.4706 0.0955712 14.2076 0.0955712 13.8715C0.0955712 13.852 0.0955712 13.8325 0.10035 13.813C0.124243 10.837 1.34278 8.1435 3.30199 6.1952C5.23252 4.27613 7.88462 3.07306 10.8091 3.02922C10.8664 3.00974 10.9286 3 10.9907 3C11.0528 3 11.1149 3.00974 11.1723 3.02922C14.0824 3.0828 16.7154 4.28587 18.6364 6.1952C20.6052 8.15811 21.8285 10.8711 21.838 13.8715C21.838 14.2027 21.58 14.4657 21.255 14.4657V14.4706H11.7935V27.4803ZM15.5255 27.4803H31.9017L29.4168 24.9719H17.7667L15.5255 27.4803ZM24.4658 23.4329H20.2464L18.9609 21.9814H23.4623L24.4658 23.4329ZM17.8236 7.04748C17.0304 6.25842 16.0938 5.60087 15.0664 5.12354C15.463 5.70802 15.7975 6.37531 16.0699 7.1108C16.7055 8.82043 17.0161 10.9246 17.0447 13.2772H20.6478C20.4949 10.8467 19.4436 8.66456 17.8236 7.04748ZM11.5732 4.24219C11.9507 4.26654 12.3187 4.31038 12.6819 4.3737C13.6997 5.03612 14.4595 6.12716 14.9756 7.53968C15.5633 9.1178 15.8501 11.0758 15.8787 13.2823H11.5732V4.24219ZM10.4032 4.2373C10.0353 4.26166 9.66735 4.30062 9.31373 4.35907C8.28156 5.02636 7.51699 6.12715 6.99613 7.55428C6.41792 9.12753 6.13121 11.0807 6.10254 13.2774H10.408V4.2373H10.4032ZM4.11912 7.05245C4.9267 6.24391 5.88241 5.57662 6.93847 5.09442C6.52273 5.68865 6.17868 6.37542 5.90152 7.13526C5.27553 8.84001 4.96492 10.9393 4.93625 13.2773H1.29021C1.4479 10.8516 2.49919 8.66954 4.11912 7.05245Z" fill="#666666"/>
<path fill-rule="evenodd" clip-rule="evenodd" d="M30.9156 0C30.7053 0 30.5381 0.175347 30.5381 0.384788V1.36381C30.5381 1.57812 30.7101 1.74859 30.9156 1.74859C31.1258 1.74859 31.2931 1.57325 31.2931 1.36381V0.384788C31.2931 0.170476 31.1211 0 30.9156 0ZM27.848 1.281C27.7429 1.10079 27.805 0.866991 27.9866 0.759835C28.1634 0.652679 28.3928 0.715999 28.4979 0.901087L28.9758 1.74859C29.0809 1.92881 29.0188 2.16748 28.8372 2.26976C28.6604 2.37692 28.431 2.3136 28.3259 2.13338L27.848 1.281ZM30.8342 2.5376C31.7565 2.5376 32.5975 2.91752 33.1996 3.5361C33.8017 4.14981 34.1792 5.00706 34.1792 5.94711C34.1792 6.88717 33.8065 7.73955 33.1996 8.35813C32.5975 8.97671 31.7565 9.35663 30.8342 9.35663C29.912 9.35663 29.0757 8.97671 28.4689 8.35813C27.8668 7.74442 27.4893 6.88717 27.4893 5.94711C27.4893 5.00706 27.862 4.15468 28.4689 3.5361C29.0757 2.92239 29.912 2.5376 30.8342 2.5376ZM33.3096 0.979225C33.4147 0.799007 33.6393 0.735688 33.8209 0.842844C33.9977 0.95 34.0598 1.17893 33.9594 1.36401L33.4816 2.21152C33.3765 2.39174 33.1519 2.45506 32.9703 2.35277C32.7935 2.24562 32.7314 2.01669 32.8365 1.8316L33.3096 0.979225ZM35.9242 3.04886C35.8239 2.86377 35.5897 2.80045 35.4129 2.90761L34.5862 3.39468C34.4046 3.50184 34.3425 3.73563 34.4476 3.91585C34.5528 4.10094 34.7821 4.16426 34.9589 4.0571L35.7856 3.57003C35.9672 3.46287 36.0246 3.22908 35.9242 3.04886ZM36.2921 5.64502C36.4976 5.64502 36.6696 5.8155 36.6696 6.02981C36.6696 6.24412 36.5024 6.4146 36.2921 6.4146H35.3316C35.1261 6.4146 34.9541 6.24412 34.9541 6.02981C34.9541 5.8155 35.1214 5.64502 35.3316 5.64502H36.2921ZM35.8473 8.99138C35.9477 8.80629 35.8856 8.57737 35.7088 8.47021L34.8821 7.98801C34.7005 7.88085 34.4759 7.94417 34.3708 8.12439C34.2656 8.30948 34.3277 8.5384 34.5046 8.64556L35.336 9.13263C35.5176 9.23492 35.7422 9.1716 35.8473 8.99138ZM33.8215 10.6132C33.9266 10.7934 33.8645 11.032 33.6829 11.1343C33.5061 11.2415 33.2719 11.1782 33.1716 10.9931L32.6937 10.1456C32.5886 9.96536 32.6507 9.73156 32.8323 9.62441C33.0091 9.51725 33.2385 9.58057 33.3436 9.76566L33.8215 10.6132ZM30.7534 11.8943C30.9636 11.8943 31.1309 11.719 31.1309 11.5096V10.5305C31.1309 10.3162 30.9589 10.1457 30.7534 10.1457C30.5479 10.1457 30.3807 10.3211 30.3807 10.5305V11.5096C30.3807 11.7239 30.5479 11.8943 30.7534 11.8943ZM28.359 10.9151C28.2539 11.0954 28.0293 11.1587 27.8477 11.0515C27.6709 10.9444 27.6088 10.7154 27.7091 10.5304L28.187 9.68285C28.2921 9.50263 28.5167 9.43931 28.6983 9.5416C28.8751 9.64876 28.9372 9.87768 28.8321 10.0628L28.359 10.9151ZM25.7455 8.85013C25.8458 9.03522 26.08 9.09854 26.2568 8.99138L27.0835 8.50431C27.265 8.39715 27.3272 8.16336 27.222 7.98314C27.1169 7.79805 26.8875 7.73473 26.7107 7.84189L25.8793 8.32896C25.7024 8.43612 25.6403 8.66991 25.7455 8.85013ZM25.3775 6.24916C25.172 6.24916 25 6.07868 25 5.86437C25 5.65493 25.1672 5.47958 25.3775 5.47958H26.338C26.5435 5.47958 26.7155 5.65006 26.7155 5.86437C26.7155 6.07381 26.5483 6.24916 26.338 6.24916H25.3775ZM25.8214 2.90795C25.7211 3.09304 25.7832 3.32196 25.96 3.42912L26.7867 3.91132C26.9683 4.01848 27.1929 3.95516 27.298 3.77494C27.4031 3.58985 27.341 3.36093 27.1642 3.25377L26.3327 2.7667C26.1512 2.66441 25.9266 2.72773 25.8214 2.90795Z" fill="#F34F4F"/>
</svg>
