<svg width="34" height="41" viewBox="0 0 34 41" fill="none" xmlns="http://www.w3.org/2000/svg">
<path fill-rule="evenodd" clip-rule="evenodd" d="M3.30698 10.6006H5.91876C5.95881 10.602 5.99096 10.6345 5.99237 10.675V13.3166C5.99096 13.3571 5.95881 13.3895 5.91876 13.391H3.30698C3.26692 13.3895 3.23477 13.3571 3.23337 13.3166V10.675C3.23477 10.6345 3.26692 10.602 3.30698 10.6006V10.6006Z" fill="#666666"/>
<path fill-rule="evenodd" clip-rule="evenodd" d="M12.2874 10.6006H14.8991C14.9392 10.602 14.9713 10.6345 14.9727 10.675V13.3166C14.9713 13.3571 14.9392 13.3895 14.8991 13.391H12.2874C12.2473 13.3895 12.2152 13.3571 12.2137 13.3166V10.675C12.2152 10.6345 12.2473 10.602 12.2874 10.6006Z" fill="#666666"/>
<path fill-rule="evenodd" clip-rule="evenodd" d="M7.79718 10.6006H10.409C10.449 10.602 10.4812 10.6345 10.4826 10.675V13.3166C10.4812 13.3571 10.449 13.3895 10.409 13.391H7.79718C7.75713 13.3895 7.72498 13.3571 7.72357 13.3166V10.675C7.72498 10.6345 7.75713 10.602 7.79718 10.6006V10.6006Z" fill="#666666"/>
<path fill-rule="evenodd" clip-rule="evenodd" d="M3.30698 16.3191H5.91876C5.95881 16.3205 5.99096 16.353 5.99237 16.3935V19.0351C5.99096 19.0756 5.95881 19.108 5.91876 19.1095H3.30698C3.26692 19.108 3.23477 19.0756 3.23337 19.0351V16.3935C3.23477 16.353 3.26692 16.3205 3.30698 16.3191V16.3191Z" fill="#666666"/>
<path fill-rule="evenodd" clip-rule="evenodd" d="M12.2874 16.3191H14.8991C14.9392 16.3205 14.9713 16.353 14.9727 16.3935V19.0351C14.9713 19.0756 14.9392 19.108 14.8991 19.1095H12.2874C12.2473 19.108 12.2152 19.0756 12.2137 19.0351V16.3935C12.2152 16.353 12.2473 16.3205 12.2874 16.3191V16.3191Z" fill="#666666"/>
<path fill-rule="evenodd" clip-rule="evenodd" d="M7.79718 16.3191H10.409C10.449 16.3205 10.4812 16.353 10.4826 16.3935V19.0351C10.4812 19.0756 10.449 19.108 10.409 19.1095H7.79718C7.75713 19.108 7.72498 19.0756 7.72357 19.0351V16.3935C7.72498 16.353 7.75713 16.3205 7.79718 16.3191V16.3191Z" fill="#666666"/>
<path fill-rule="evenodd" clip-rule="evenodd" d="M3.30698 27.7561H5.91876C5.95941 27.7561 5.99237 27.7894 5.99237 27.8305V30.4694C5.99237 30.5104 5.95941 30.5437 5.91876 30.5437H3.30698C3.26632 30.5437 3.23337 30.5104 3.23337 30.4694V27.8305C3.23337 27.7894 3.26632 27.7561 3.30698 27.7561V27.7561Z" fill="#666666"/>
<path fill-rule="evenodd" clip-rule="evenodd" d="M12.2874 27.7561H14.8991C14.9398 27.7561 14.9727 27.7894 14.9727 27.8305V30.4694C14.9727 30.5104 14.9398 30.5437 14.8991 30.5437H12.2874C12.2467 30.5437 12.2137 30.5104 12.2137 30.4694V27.8305C12.2137 27.7894 12.2467 27.7561 12.2874 27.7561V27.7561Z" fill="#666666"/>
<path fill-rule="evenodd" clip-rule="evenodd" d="M7.79718 27.7561H10.409C10.4496 27.7561 10.4826 27.7894 10.4826 27.8305V30.4694C10.4826 30.5104 10.4496 30.5437 10.409 30.5437H7.79718C7.75653 30.5437 7.72357 30.5104 7.72357 30.4694V27.8305C7.72357 27.7894 7.75653 27.7561 7.79718 27.7561V27.7561Z" fill="#666666"/>
<path fill-rule="evenodd" clip-rule="evenodd" d="M3.30698 22.0266H5.91876C5.95941 22.0266 5.99237 22.0599 5.99237 22.101V24.7536C5.99096 24.7941 5.95881 24.8266 5.91876 24.828H3.30698C3.26692 24.8266 3.23477 24.7941 3.23337 24.7536V22.112C3.23337 22.0709 3.26632 22.0376 3.30698 22.0376V22.0266Z" fill="#666666"/>
<path fill-rule="evenodd" clip-rule="evenodd" d="M12.2874 22.0266H14.8991C14.9398 22.0266 14.9727 22.0599 14.9727 22.101V24.7536C14.9713 24.7941 14.9392 24.8266 14.8991 24.828H12.2874C12.2473 24.8266 12.2152 24.7941 12.2137 24.7536V22.112C12.2137 22.0709 12.2467 22.0376 12.2874 22.0376V22.0266Z" fill="#666666"/>
<path fill-rule="evenodd" clip-rule="evenodd" d="M7.79717 22.0265H10.4089C10.4496 22.0265 10.4826 22.0598 10.4826 22.1009V24.7535C10.4812 24.794 10.449 24.8265 10.4089 24.8279H7.79717C7.75711 24.8265 7.72497 24.794 7.72356 24.7535V22.1119C7.72036 22.0903 7.72668 22.0684 7.74085 22.052C7.75502 22.0356 7.7756 22.0263 7.79717 22.0265Z" fill="#666666"/>
<path fill-rule="evenodd" clip-rule="evenodd" d="M0 40.0194V41H25.2154V40.9973H28.0153C28.2607 40.9973 28.4597 40.7962 28.4597 40.5483V17.33C28.4598 17.1562 28.3911 16.9895 28.2688 16.8673C28.1466 16.7438 27.9809 16.6744 27.8081 16.6744H18.2061V7.94247C18.2064 7.75043 18.1365 7.56504 18.0098 7.42186L17.9744 7.38605C17.8304 7.23855 17.6341 7.15525 17.4291 7.15466H0.768812C0.563918 7.15586 0.367846 7.23906 0.223555 7.38605C0.0945777 7.51469 0.0152999 7.68563 0 7.8681V40.0194ZM25.2154 40.0166V40.0194H24.6701V35.3366C24.6701 35.151 24.5212 35.0006 24.3375 35.0006H20.5943C20.4106 35.0006 20.2617 35.151 20.2617 35.3366V40.0194H18.2088V17.6193H27.5355V40.0166H25.2154ZM17.2383 40.0194H18.2088V40.0249H17.2383V40.0194ZM17.2383 40.0194V8.13253H0.96783V40.0194H4.99182V33.3836C4.99332 33.1367 5.19184 32.9374 5.43621 32.9374H12.7699C13.0143 32.9374 13.2128 33.1367 13.2143 33.3836V40.0194H17.2383ZM24.0158 40.0194H20.9269V35.6617H24.0158V40.0194ZM5.88086 40.0191H12.3258V33.8324H5.88086V40.0191Z" fill="#666666"/>
<path fill-rule="evenodd" clip-rule="evenodd" d="M23.2961 19.5475H25.6979C25.717 19.5475 25.7334 19.575 25.7334 19.6081V21.1809C25.7334 21.2085 25.717 21.2388 25.6979 21.2388H23.2961C23.277 21.2388 23.2607 21.214 23.2607 21.1809V19.6081C23.2607 19.575 23.277 19.5475 23.2961 19.5475Z" fill="#666666"/>
<path fill-rule="evenodd" clip-rule="evenodd" d="M23.2961 30.4556H25.6979C25.717 30.4556 25.7334 30.4831 25.7334 30.5134V32.0863C25.7334 32.1166 25.717 32.1469 25.6979 32.1469H23.2961C23.277 32.1469 23.2607 32.1193 23.2607 32.0863V30.5134C23.2607 30.4831 23.277 30.4556 23.2961 30.4556V30.4556Z" fill="#666666"/>
<path fill-rule="evenodd" clip-rule="evenodd" d="M19.2472 30.4554H21.6463C21.6681 30.4554 21.6844 30.483 21.6844 30.5133V32.0861C21.6844 32.1164 21.6681 32.1467 21.6463 32.1467H19.2472C19.2253 32.1467 19.209 32.1192 19.209 32.0861V30.5133C19.209 30.483 19.2253 30.4554 19.2472 30.4554V30.4554Z" fill="#666666"/>
<path fill-rule="evenodd" clip-rule="evenodd" d="M23.2961 26.8195H25.6979C25.717 26.8195 25.7334 26.847 25.7334 26.8801V28.4529C25.7334 28.4832 25.717 28.5135 25.6979 28.5135H23.2961C23.277 28.5135 23.2607 28.486 23.2607 28.4529V26.8801C23.2607 26.8442 23.277 26.8195 23.2961 26.8195Z" fill="#666666"/>
<path fill-rule="evenodd" clip-rule="evenodd" d="M23.2961 23.1835H25.6979C25.717 23.1835 25.7334 23.211 25.7334 23.2441V24.8169C25.7334 24.8472 25.717 24.8775 25.6979 24.8775H23.2961C23.277 24.8775 23.2607 24.85 23.2607 24.8169V23.2441C23.2607 23.211 23.277 23.1835 23.2961 23.1835Z" fill="#666666"/>
<path fill-rule="evenodd" clip-rule="evenodd" d="M19.2472 19.5472H21.6463C21.6681 19.5472 21.6844 19.5748 21.6844 19.6078V21.1807C21.6844 21.2082 21.6681 21.2385 21.6463 21.2385H19.2472C19.2253 21.2385 19.209 21.2138 19.209 21.1807V19.6078C19.209 19.5748 19.2253 19.5472 19.2472 19.5472Z" fill="#666666"/>
<path fill-rule="evenodd" clip-rule="evenodd" d="M19.2472 26.8197H21.6463C21.6681 26.8197 21.6844 26.8472 21.6844 26.8803V28.4532C21.6844 28.4835 21.6681 28.5138 21.6463 28.5138H19.2472C19.2253 28.5138 19.209 28.4862 19.209 28.4532V26.8803C19.209 26.8445 19.2253 26.8197 19.2472 26.8197Z" fill="#666666"/>
<path fill-rule="evenodd" clip-rule="evenodd" d="M19.2472 23.1835H21.6463C21.6681 23.1835 21.6844 23.211 21.6844 23.2441V24.8169C21.6844 24.8472 21.6681 24.8775 21.6463 24.8775H19.2472C19.2253 24.8775 19.209 24.85 19.209 24.8169V23.2441C19.209 23.211 19.2253 23.1835 19.2472 23.1835Z" fill="#666666"/>
<path d="M31.2298 5.06575L33.3666 3.12937C33.8789 2.70012 34.106 2.01644 33.953 1.36364C33.8 0.710852 33.2933 0.201152 32.6444 0.0472683C31.9954 -0.106615 31.3158 0.121766 30.8891 0.637096L29.0009 2.82363L23.8615 0.590771C23.3639 0.382841 22.7903 0.580174 22.5235 1.05107C22.2566 1.52196 22.3801 2.11902 22.8115 2.44376L26.7352 5.29737L24.1655 8.24363L21.826 8.38261C21.1813 8.28069 20.8129 9.17939 21.3747 9.48514L23.3089 10.5599C23.3936 10.608 23.4637 10.6785 23.5115 10.7637L24.5799 12.7093C24.8839 13.2745 25.7773 12.9039 25.676 12.2554L25.8326 9.87426L28.7615 7.28934L31.5983 11.2362C31.9211 11.6702 32.5146 11.7944 32.9827 11.526C33.4509 11.2576 33.647 10.6806 33.4403 10.18L31.2298 5.06575Z" fill="#F34F4F"/>
</svg>
