<svg width="41" height="41" viewBox="0 0 41 41" fill="none" xmlns="http://www.w3.org/2000/svg">
<path fill-rule="evenodd" clip-rule="evenodd" d="M15.0192 40.4628L40.4661 15.018L40.4728 15.0046C40.643 14.8311 40.7731 14.6309 40.8599 14.4207C40.9533 14.1972 41 13.957 41 13.7167C41 13.4798 40.9533 13.2396 40.8599 13.0127C40.7698 12.7992 40.6396 12.5956 40.4628 12.4188L37.0959 9.05217C36.9791 8.93205 36.8289 8.86865 36.6754 8.85531C36.5153 8.84196 36.3551 8.882 36.2183 8.96875C35.928 9.14225 35.611 9.26237 35.2873 9.3291C34.9569 9.39917 34.6199 9.41252 34.2896 9.37248C33.9525 9.33244 33.6189 9.23568 33.3119 9.08553C33.0182 8.93872 32.7413 8.7452 32.4977 8.49495V8.49162C32.2474 8.24137 32.0505 7.9611 31.9071 7.66748C31.7536 7.35718 31.6568 7.03019 31.6167 6.69653V6.6932C31.5767 6.3562 31.5934 6.0092 31.6668 5.67554C31.7402 5.34855 31.867 5.03491 32.0472 4.74463L32.0539 4.73462C32.1306 4.60116 32.1573 4.44767 32.1406 4.3042C32.124 4.15405 32.0572 4.01058 31.9504 3.90381L28.5835 0.537191C28.41 0.360352 28.2065 0.230225 27.9896 0.140137C27.766 0.0467122 27.5258 0 27.2855 0C27.0453 0 26.805 0.0467122 26.5781 0.140137C26.3645 0.230225 26.161 0.360352 25.9841 0.537191L0.527224 25.9954C0.357044 26.1689 0.226906 26.3657 0.140148 26.5793C0.046716 26.8028 0 27.0431 0 27.2833C0 27.5235 0.046716 27.7638 0.140148 27.9873C0.230243 28.2008 0.360381 28.4044 0.537234 28.5812L3.87743 31.9245C3.99756 32.0446 4.15773 32.1147 4.3179 32.1247C4.47807 32.138 4.63824 32.0946 4.77505 31.9912C5.06535 31.8044 5.38236 31.6709 5.7127 31.5908C6.04973 31.5107 6.4001 31.4874 6.73712 31.5208C7.08082 31.5541 7.42118 31.6475 7.74152 31.801C8.04851 31.9445 8.33548 32.1447 8.58908 32.3983C8.84268 32.6519 9.04289 32.9421 9.18638 33.2458C9.33653 33.5661 9.42997 33.9064 9.46667 34.2501V34.2534C9.50004 34.6038 9.47668 34.9574 9.39326 35.2978C9.31318 35.6348 9.17636 35.9584 8.97949 36.2554L8.96948 36.2721C8.88939 36.4055 8.85603 36.559 8.86937 36.7058C8.88606 36.8626 8.94946 37.0094 9.06291 37.1229L12.4165 40.4728C12.59 40.643 12.7902 40.7731 13.0004 40.8599C13.2273 40.9533 13.4642 41 13.7045 41C13.9447 41 14.1817 40.9533 14.4086 40.8599C14.6121 40.7764 14.8056 40.6563 14.9725 40.4962C14.9892 40.4895 15.0059 40.4762 15.0192 40.4628ZM34.4564 19.0986L19.0935 34.4603L6.55359 21.9214L21.9165 6.55973L34.4564 19.0986ZM18.1362 35.4145L5.59629 22.8789L1.51531 26.9596C1.47193 27.0029 1.43856 27.053 1.41854 27.1097C1.39518 27.1698 1.38184 27.2332 1.38184 27.2932C1.38184 27.3599 1.39185 27.42 1.4152 27.4767C1.43856 27.5301 1.47193 27.5835 1.51531 27.6269L4.49179 30.6031C4.8455 30.4296 5.21922 30.3062 5.59629 30.2327C6.02007 30.1527 6.45053 30.1327 6.87764 30.176C7.37817 30.2227 7.86869 30.3529 8.32584 30.5697C8.77632 30.7833 9.19343 31.0736 9.56382 31.4439C9.92754 31.8076 10.2145 32.2247 10.4247 32.6685C10.645 33.1322 10.7784 33.6294 10.8318 34.1299C10.8752 34.557 10.8585 34.9907 10.7751 35.4111C10.7017 35.7915 10.5782 36.1619 10.4047 36.5155L13.3812 39.4918C13.4246 39.5352 13.4746 39.5685 13.5313 39.5885C13.5914 39.6119 13.6548 39.6252 13.7149 39.6252C13.7783 39.6252 13.8417 39.6119 13.8984 39.5885C13.9518 39.5652 14.0052 39.5318 14.0486 39.4884L18.1362 35.4145ZM35.4141 18.141L22.8742 5.60213L26.9585 1.51481C27.0019 1.47144 27.0553 1.43807 27.1087 1.41471C27.1654 1.39136 27.2254 1.38135 27.2922 1.38135C27.3522 1.38135 27.4156 1.39469 27.4757 1.41805L27.4824 1.42139C27.5358 1.44474 27.5858 1.47811 27.6259 1.51815L30.6324 4.52441C30.4755 4.87809 30.3654 5.24512 30.302 5.62215C30.2353 6.03589 30.2253 6.4563 30.2753 6.87337C30.3321 7.36051 30.4722 7.83765 30.6891 8.28809C30.8993 8.72184 31.183 9.12557 31.5433 9.48592C31.9037 9.84627 32.3075 10.1299 32.7413 10.3401C33.1884 10.557 33.6622 10.6938 34.1528 10.7505C34.5732 10.8005 34.9937 10.7905 35.4074 10.7238C35.7845 10.6604 36.1515 10.5503 36.5052 10.3935L39.5184 13.4064C39.5585 13.4498 39.5918 13.4965 39.6119 13.5499L39.6152 13.5566C39.6386 13.6099 39.6486 13.67 39.6486 13.7334C39.6486 13.7935 39.6352 13.8569 39.6119 13.9169C39.5985 13.9536 39.5785 13.987 39.5551 14.0203C39.5351 14.027 39.5184 14.037 39.5017 14.0537L35.4141 18.141Z" fill="#666666"/>
<path fill-rule="evenodd" clip-rule="evenodd" d="M18.2563 26.1653C18.2263 26.1953 18.1829 26.2153 18.1362 26.2153C18.0928 26.2153 18.0528 26.1987 18.0194 26.1686L17.2152 25.3779C17.1918 25.3545 17.1752 25.3211 17.1685 25.2878C17.1318 25.0542 17.1051 24.854 17.0817 24.6905L17.0584 24.507C17.015 24.4836 16.9749 24.457 16.9349 24.4303C16.8748 24.3869 16.8148 24.3368 16.7581 24.2835L16.748 24.2734C16.698 24.2234 16.6546 24.1733 16.6146 24.1166L16.6079 24.1066C16.5845 24.0732 16.5612 24.0399 16.5412 24.0032L16.3243 23.9798C16.1741 23.9665 16.0006 23.9465 15.8204 23.9264C15.7837 23.9231 15.7503 23.9064 15.7236 23.8764L14.856 22.9955C14.7926 22.9321 14.7926 22.8254 14.856 22.762C15.2898 22.3282 15.6836 22.1347 16.0974 22.0713C16.4778 22.0146 16.8615 22.068 17.3053 22.1547L18.947 20.5131L14.1987 18.668C14.172 18.6613 14.1486 18.648 14.1286 18.6279C14.0652 18.5645 14.0652 18.4578 14.1286 18.3944C14.4923 18.0307 14.7192 17.7471 14.8894 17.5335C15.4033 16.8862 15.4734 16.7961 16.748 17.0898L17.5122 16.3257C17.5756 16.2623 17.6824 16.2623 17.7458 16.3257L18.5132 17.0931C18.5766 17.1565 18.5766 17.2633 18.5132 17.3267L18.3731 17.4668L18.907 17.5903L19.7712 16.7261C19.8346 16.6627 19.9414 16.6627 20.0048 16.7261L20.7723 17.4935C20.8357 17.5569 20.8357 17.6637 20.7723 17.7271L20.532 17.9673L21.3129 18.1475L23.2015 16.259C23.3784 16.0821 23.6286 16.0187 23.8889 16.0554C24.1325 16.0888 24.3861 16.2156 24.593 16.4191L24.5963 16.4224C24.8032 16.6293 24.93 16.8862 24.9634 17.1331C25.0001 17.3934 24.9334 17.6436 24.7598 17.8205L22.8712 19.709L23.0514 20.4797L23.2883 20.2428C23.3517 20.1794 23.4585 20.1794 23.5219 20.2428L24.2893 21.0103C24.3527 21.0737 24.3527 21.1804 24.2893 21.2438L23.4284 22.1047L23.5519 22.6385L23.6887 22.5017C23.7521 22.4383 23.8589 22.4383 23.9223 22.5017L24.6898 23.2691C24.7532 23.3325 24.7532 23.4393 24.6898 23.5027L23.929 24.2634C24.2159 25.5413 24.0958 25.6314 23.4718 26.1019C23.2516 26.2687 22.9613 26.4889 22.5909 26.856C22.5742 26.8726 22.5542 26.8827 22.5342 26.8927C22.4507 26.926 22.354 26.8827 22.3206 26.7992L20.5053 22.078L18.8503 23.7329C18.907 24.1733 18.9437 24.5737 18.887 24.9608C18.8236 25.3812 18.6434 25.7782 18.2563 26.1653Z" fill="#F34F4F"/>
</svg>
